<?xml version="1.0" encoding="utf-8"?>
<!-- Generator: Adobe Illustrator 19.0.1, SVG Export Plug-In . SVG Version: 6.00 Build 0)  -->
<!DOCTYPE svg PUBLIC "-//W3C//DTD SVG 1.1//EN" "http://www.w3.org/Graphics/SVG/1.1/DTD/svg11.dtd">
<svg version="1.1" id="Layer_1" xmlns="http://www.w3.org/2000/svg" xmlns:xlink="http://www.w3.org/1999/xlink" x="0px" y="0px"
	 width="72px" height="72px" viewBox="0 0 72 72" enable-background="new 0 0 72 72" xml:space="preserve">
<g>
	<polygon fill="#FFAA45" points="39.907,37.822 37.907,43.822 42.907,43.822 40.907,49.822 48.907,40.822 44.907,40.822 
		46.907,37.822 	"/>
	<path fill="#868686" d="M40.714,17.428c-3.586,0-6.83,1.837-8.681,4.801c-0.375-0.057-0.756-0.086-1.141-0.086
		c-2.791,0-5.307,1.555-6.594,3.936c-3.126,0.161-5.62,2.755-5.62,5.921c0,2.936,2.18,5.25,5.554,5.893
		c2.205,0.421,5.395,0.577,11.768,0.577c6.022,0,9.859-0.302,12.019-0.555c3.172-0.372,5.303-2.591,5.303-5.522
		c0-1.841-0.904-3.507-2.359-4.52c0.001-0.065,0.002-0.13,0.002-0.194C50.964,22.026,46.366,17.428,40.714,17.428L40.714,17.428z"/>
	<path fill="#45ABFF" d="M35.134,45.072c-0.955,0-1.733,0.769-1.75,1.72c-0.259-0.144-0.552-0.22-0.848-0.22
		c-0.624,0-1.205,0.335-1.516,0.875c-0.477,0.827-0.201,1.885,0.614,2.375c-0.815,0.489-1.092,1.548-0.614,2.375
		c0.311,0.54,0.892,0.875,1.516,0.875c0.296,0,0.589-0.076,0.848-0.22c0.016,0.951,0.795,1.72,1.75,1.72s1.733-0.769,1.75-1.719
		c0.259,0.144,0.551,0.219,0.848,0.219c0.624,0,1.205-0.336,1.516-0.876c0.477-0.827,0.2-1.885-0.615-2.374
		c0.815-0.489,1.092-1.548,0.614-2.375c-0.312-0.54-0.892-0.875-1.516-0.875c-0.296,0-0.589,0.076-0.848,0.22
		C36.867,45.841,36.089,45.072,35.134,45.072L35.134,45.072z"/>
	<path fill="#45ABFF" d="M26.125,39.572c-0.955,0-1.733,0.769-1.75,1.72c-0.259-0.144-0.552-0.22-0.848-0.22
		c-0.624,0-1.205,0.335-1.516,0.875c-0.477,0.827-0.201,1.885,0.614,2.375c-0.815,0.489-1.092,1.548-0.614,2.375
		c0.311,0.54,0.892,0.875,1.516,0.875c0.296,0,0.589-0.076,0.848-0.22c0.016,0.951,0.795,1.72,1.75,1.72s1.733-0.769,1.75-1.719
		c0.259,0.144,0.551,0.219,0.848,0.219c0.624,0,1.205-0.336,1.516-0.876c0.477-0.827,0.2-1.885-0.615-2.374
		c0.815-0.489,1.092-1.548,0.614-2.375c-0.312-0.54-0.892-0.875-1.516-0.875c-0.296,0-0.589,0.076-0.848,0.22
		C27.858,40.34,27.08,39.572,26.125,39.572L26.125,39.572z"/>
	<path fill="#BFBFBF" d="M48.843,29.035c0.073-0.443,0.121-0.894,0.121-1.357c0-4.557-3.693-8.25-8.25-8.25
		c-3.464,0-6.424,2.137-7.647,5.162c-0.667-0.287-1.402-0.448-2.174-0.448c-2.541,0-4.674,1.726-5.305,4.067
		c-0.315-0.082-0.64-0.138-0.981-0.138c-2.17,0-3.929,1.759-3.929,3.929c0,2.17,1.744,3.512,3.929,3.929
		c2.185,0.417,5.518,0.542,11.393,0.542s9.655-0.292,11.786-0.542c2.131-0.25,3.536-1.583,3.536-3.536
		C51.321,30.81,50.276,29.487,48.843,29.035z"/>
	<g>
		<path fill="#E0E0E0" d="M24.607,30.105c0.341,0,0.666,0.057,0.981,0.138c0.631-2.342,2.764-4.067,5.305-4.067
			c0.773,0,1.507,0.161,2.174,0.448c1.223-3.026,4.183-5.162,7.647-5.162c4.203,0,7.664,3.144,8.177,7.207
			c0.042-0.326,0.073-0.654,0.073-0.992c0-4.557-3.693-8.25-8.25-8.25c-3.464,0-6.424,2.137-7.647,5.162
			c-0.667-0.287-1.402-0.448-2.174-0.448c-2.541,0-4.674,1.726-5.305,4.067c-0.315-0.082-0.64-0.138-0.981-0.138
			c-2.17,0-3.929,1.759-3.929,3.929c0,0.36,0.064,0.689,0.154,1.004C21.288,31.336,22.796,30.105,24.607,30.105z"/>
	</g>
	<path fill="#FFFFFF" d="M38.107,50.673l-1.473-0.851l1.473-0.851c0.359-0.207,0.481-0.666,0.274-1.024s-0.666-0.481-1.024-0.274
		l-1.473,0.851v-1.701c0-0.414-0.336-0.75-0.75-0.75s-0.75,0.336-0.75,0.75v1.701l-1.473-0.851
		c-0.358-0.207-0.817-0.084-1.024,0.274c-0.207,0.359-0.084,0.817,0.274,1.024l1.473,0.851l-1.473,0.851
		c-0.359,0.207-0.481,0.666-0.274,1.024c0.139,0.241,0.391,0.375,0.65,0.375c0.127,0,0.256-0.032,0.375-0.101l1.473-0.851v1.701
		c0,0.414,0.336,0.75,0.75,0.75s0.75-0.336,0.75-0.75v-1.701l1.473,0.851c0.118,0.068,0.247,0.101,0.375,0.101
		c0.259,0,0.511-0.134,0.65-0.375C38.588,51.338,38.466,50.88,38.107,50.673z"/>
	<path fill="#FFFFFF" d="M29.098,45.172l-1.473-0.851l1.473-0.851c0.359-0.207,0.481-0.666,0.274-1.024s-0.666-0.481-1.024-0.274
		l-1.473,0.851v-1.701c0-0.414-0.336-0.75-0.75-0.75s-0.75,0.336-0.75,0.75v1.701l-1.473-0.851
		c-0.358-0.207-0.817-0.084-1.024,0.274s-0.084,0.817,0.274,1.024l1.473,0.851l-1.473,0.851c-0.359,0.207-0.481,0.666-0.274,1.024
		c0.139,0.241,0.391,0.375,0.65,0.375c0.127,0,0.256-0.032,0.375-0.101l1.473-0.851v1.701c0,0.414,0.336,0.75,0.75,0.75
		s0.75-0.336,0.75-0.75v-1.701l1.473,0.851c0.118,0.068,0.247,0.101,0.375,0.101c0.259,0,0.511-0.134,0.65-0.375
		C29.58,45.838,29.457,45.379,29.098,45.172z"/>
</g>
</svg>
