<?xml version="1.0" encoding="utf-8"?>
<!-- Generator: Adobe Illustrator 19.0.1, SVG Export Plug-In . SVG Version: 6.00 Build 0)  -->
<!DOCTYPE svg PUBLIC "-//W3C//DTD SVG 1.1//EN" "http://www.w3.org/Graphics/SVG/1.1/DTD/svg11.dtd">
<svg version="1.1" id="Layer_1" xmlns="http://www.w3.org/2000/svg" xmlns:xlink="http://www.w3.org/1999/xlink" x="0px" y="0px"
	 width="72px" height="72px" viewBox="0 0 72 72" enable-background="new 0 0 72 72" xml:space="preserve">
<g>
	<path fill="#FFAA45" d="M26.232,25.19c-0.393,0-0.765-0.233-0.924-0.618l-1.216-2.937c-0.211-0.51,0.031-1.095,0.541-1.306
		c0.509-0.211,1.096,0.031,1.307,0.542l1.216,2.937c0.211,0.51-0.031,1.095-0.541,1.306C26.49,25.165,26.36,25.19,26.232,25.19z"/>
	<path fill="#FFAA45" d="M17.514,40.361c-0.393,0-0.765-0.232-0.924-0.617c-0.211-0.511,0.031-1.096,0.541-1.307l2.938-1.216
		c0.51-0.211,1.096,0.031,1.307,0.541c0.211,0.511-0.031,1.096-0.541,1.307l-2.938,1.216C17.772,40.337,17.642,40.361,17.514,40.361
		z"/>
	<path fill="#FFAA45" d="M40.188,30.971c-0.392,0-0.765-0.233-0.924-0.618c-0.211-0.51,0.031-1.095,0.541-1.307l2.937-1.216
		c0.508-0.209,1.096,0.031,1.307,0.541s-0.031,1.095-0.541,1.307l-2.937,1.216C40.446,30.946,40.316,30.971,40.188,30.971z"/>
	<path fill="#FFAA45" d="M34.407,25.19c-0.128,0-0.258-0.025-0.383-0.077c-0.51-0.211-0.752-0.796-0.541-1.306l1.216-2.937
		c0.211-0.511,0.798-0.751,1.307-0.542c0.51,0.211,0.752,0.796,0.541,1.306l-1.216,2.937C35.172,24.957,34.799,25.19,34.407,25.19z"
		/>
	<path fill="#FFAA45" d="M25.016,47.863c-0.128,0-0.258-0.024-0.383-0.076c-0.51-0.211-0.752-0.796-0.541-1.307l1.216-2.938
		c0.211-0.51,0.8-0.751,1.307-0.541c0.51,0.211,0.752,0.796,0.541,1.307l-1.216,2.938C25.781,47.631,25.408,47.863,25.016,47.863z"
		/>
	<path fill="#FFAA45" d="M20.451,30.971c-0.128,0-0.258-0.025-0.383-0.077l-2.938-1.216c-0.51-0.211-0.752-0.796-0.541-1.306
		c0.211-0.511,0.799-0.751,1.307-0.542l2.938,1.216c0.51,0.211,0.752,0.796,0.541,1.306C21.216,30.738,20.843,30.971,20.451,30.971z
		"/>
	<circle fill="#FFAA45" cx="30.319" cy="34.058" r="8.291"/>
	<path fill="#FFDA69" d="M30.317,27.765L30.317,27.765c2.555,0,4.837,1.525,5.815,3.885c1.327,3.205-0.2,6.892-3.404,8.219
		c-0.771,0.319-1.579,0.481-2.404,0.481c-2.555,0-4.837-1.525-5.815-3.885c-0.643-1.552-0.643-3.262,0-4.815
		c0.643-1.552,1.852-2.761,3.405-3.404C28.683,27.927,29.492,27.765,30.317,27.765"/>
	<path fill="#868686" d="M44.319,32.414c-3.456,0-6.56,1.987-8.056,5c-3.834,0.03-6.944,3.159-6.944,7
		c0,3.716,3.023,6.257,5.866,6.762c2.196,0.39,4.727,0.571,7.967,0.571c3.221,0,5.312-0.021,7.63-0.44
		c4.093-0.739,4.704-3.642,4.704-5.306c0-1.728-0.83-3.317-2.171-4.319c0.003-0.089,0.004-0.179,0.004-0.268
		C53.319,36.452,49.282,32.414,44.319,32.414L44.319,32.414z"/>
	<path fill="#E6E6E6" d="M51.183,42.789c0.089-0.445,0.137-0.904,0.137-1.375c0-3.866-3.133-7-7-7c-3.234,0-5.948,2.196-6.752,5.176
		c-0.401-0.104-0.815-0.176-1.248-0.176c-2.762,0-5,2.238-5,5c0,2.762,2.341,4.46,4.216,4.792c1.875,0.333,4.242,0.54,7.617,0.54
		c3.375,0,5.195-0.032,7.274-0.408c2.079-0.376,3.059-1.453,3.059-3.338C53.486,44.507,52.52,43.251,51.183,42.789z"/>
	<g>
		<path fill="#FFFFFF" d="M36.319,41.499c0.434,0,0.847,0.073,1.248,0.176c0.803-2.98,3.517-5.176,6.752-5.176
			c3.511,0,6.408,2.586,6.914,5.955c0.051-0.34,0.086-0.685,0.086-1.04c0-3.866-3.133-7-7-7c-3.234,0-5.948,2.196-6.752,5.176
			c-0.401-0.104-0.815-0.176-1.248-0.176c-2.762,0-5,2.238-5,5c0,0.361,0.044,0.702,0.118,1.026
			C31.924,43.188,33.922,41.499,36.319,41.499z"/>
	</g>
</g>
</svg>
