<?xml version="1.0" encoding="utf-8"?>
<!-- Generator: Adobe Illustrator 19.0.1, SVG Export Plug-In . SVG Version: 6.00 Build 0)  -->
<!DOCTYPE svg PUBLIC "-//W3C//DTD SVG 1.1//EN" "http://www.w3.org/Graphics/SVG/1.1/DTD/svg11.dtd">
<svg version="1.1" id="Layer_1" xmlns="http://www.w3.org/2000/svg" xmlns:xlink="http://www.w3.org/1999/xlink" x="0px" y="0px"
	 width="72px" height="72px" viewBox="0 0 72 72" enable-background="new 0 0 72 72" xml:space="preserve">
<g>
	<path fill="#45ABFF" d="M29.422,58.493c-0.117,0-0.235-0.021-0.352-0.063c-0.517-0.194-0.778-0.771-0.585-1.288l0.751-2
		c0.195-0.519,0.771-0.776,1.288-0.585c0.517,0.194,0.778,0.771,0.585,1.288l-0.751,2C30.207,58.246,29.826,58.493,29.422,58.493z"
		/>
	<path fill="#45ABFF" d="M31.673,52.493c-0.116,0-0.235-0.021-0.351-0.063c-0.518-0.193-0.779-0.771-0.586-1.287l0.749-2
		c0.193-0.517,0.771-0.777,1.287-0.586c0.518,0.193,0.779,0.771,0.586,1.287l-0.749,2C32.459,52.245,32.078,52.493,31.673,52.493z"
		/>
	<path fill="#45ABFF" d="M35.226,56.493c-0.117,0-0.235-0.021-0.352-0.063c-0.517-0.194-0.778-0.771-0.585-1.288l0.75-2
		c0.193-0.518,0.771-0.776,1.288-0.585c0.517,0.194,0.778,0.771,0.585,1.288l-0.75,2C36.012,56.246,35.63,56.493,35.226,56.493z"/>
	<path fill="#FFAA45" d="M25.269,18.444c-0.393,0-0.765-0.232-0.924-0.617l-1.216-2.937c-0.211-0.511,0.031-1.096,0.541-1.307
		c0.512-0.212,1.095,0.031,1.307,0.541l1.216,2.937c0.211,0.511-0.031,1.096-0.541,1.307C25.525,18.42,25.396,18.444,25.269,18.444z
		"/>
	<path fill="#FFAA45" d="M16.551,33.617c-0.393,0-0.765-0.232-0.924-0.617c-0.211-0.51,0.031-1.096,0.541-1.307l2.937-1.217
		c0.51-0.211,1.095,0.031,1.307,0.541c0.211,0.51-0.031,1.096-0.541,1.307l-2.937,1.217C16.809,33.593,16.679,33.617,16.551,33.617z
		"/>
	<path fill="#FFAA45" d="M39.225,24.226c-0.393,0-0.765-0.232-0.924-0.617c-0.211-0.511,0.031-1.096,0.541-1.307l2.937-1.217
		c0.51-0.212,1.095,0.031,1.307,0.541c0.211,0.511-0.031,1.096-0.541,1.307l-2.937,1.217C39.482,24.201,39.352,24.226,39.225,24.226
		z"/>
	<path fill="#FFAA45" d="M33.443,18.444c-0.127,0-0.257-0.024-0.382-0.076c-0.51-0.211-0.752-0.797-0.541-1.307l1.217-2.937
		c0.211-0.51,0.795-0.753,1.307-0.541c0.51,0.211,0.752,0.797,0.541,1.307l-1.217,2.937C34.207,18.212,33.835,18.444,33.443,18.444z
		"/>
	<path fill="#FFAA45" d="M19.487,24.226c-0.127,0-0.257-0.024-0.382-0.076l-2.937-1.217c-0.51-0.211-0.752-0.797-0.541-1.307
		c0.211-0.51,0.796-0.753,1.307-0.541l2.937,1.217c0.51,0.211,0.752,0.797,0.541,1.307C20.251,23.993,19.879,24.226,19.487,24.226z"
		/>
	<circle fill="#FFAA45" cx="29.356" cy="27.313" r="8.291"/>
	<path fill="#FFDA69" d="M29.353,21.02L29.353,21.02c2.554,0,4.837,1.525,5.814,3.885c0.643,1.552,0.643,3.262,0,4.815
		c-0.643,1.552-1.852,2.761-3.405,3.404c-0.771,0.319-1.579,0.481-2.404,0.481c-2.555,0-4.837-1.525-5.815-3.885
		c-1.327-3.205,0.2-6.892,3.404-8.219C27.719,21.182,28.528,21.02,29.353,21.02"/>
	<polygon fill="#FFAA45" points="41.035,46.208 39.035,52.208 44.035,52.208 42.035,58.208 50.035,49.208 46.035,49.208 
		48.035,46.208 	"/>
	<path fill="#868686" d="M43.842,25.813c-3.586,0-6.83,1.837-8.681,4.801c-0.375-0.057-0.756-0.086-1.141-0.086
		c-2.791,0-5.307,1.555-6.594,3.936c-3.126,0.161-5.62,2.755-5.62,5.921c0,2.936,2.18,5.25,5.554,5.893
		c2.206,0.421,5.395,0.577,11.768,0.577c6.022,0,9.86-0.302,12.019-0.555c3.172-0.372,5.303-2.591,5.303-5.522
		c0-1.841-0.904-3.508-2.359-4.52c0.001-0.065,0.002-0.13,0.002-0.194C54.092,30.411,49.494,25.813,43.842,25.813L43.842,25.813z"/>
	<path fill="#E6E6E6" d="M51.971,37.421c0.073-0.443,0.121-0.894,0.121-1.357c0-4.557-3.693-8.25-8.25-8.25
		c-3.464,0-6.424,2.137-7.647,5.162c-0.667-0.287-1.402-0.448-2.174-0.448c-2.541,0-4.674,1.726-5.305,4.067
		c-0.315-0.082-0.64-0.139-0.981-0.139c-2.17,0-3.929,1.759-3.929,3.929c0,2.17,1.744,3.512,3.929,3.929
		c2.185,0.417,5.518,0.542,11.393,0.542s9.655-0.292,11.786-0.542c2.131-0.25,3.536-1.583,3.536-3.536
		C54.45,39.196,53.404,37.873,51.971,37.421z"/>
	<g>
		<path fill="#FFFFFF" d="M27.735,38.491c0.341,0,0.666,0.057,0.981,0.138c0.631-2.342,2.764-4.067,5.305-4.067
			c0.773,0,1.507,0.161,2.174,0.448c1.223-3.026,4.183-5.162,7.647-5.162c4.203,0,7.664,3.144,8.177,7.207
			c0.042-0.326,0.073-0.654,0.073-0.992c0-4.557-3.693-8.25-8.25-8.25c-3.464,0-6.424,2.137-7.647,5.162
			c-0.667-0.287-1.402-0.448-2.174-0.448c-2.541,0-4.674,1.726-5.305,4.067c-0.315-0.082-0.64-0.138-0.981-0.138
			c-2.17,0-3.929,1.759-3.929,3.929c0,0.36,0.064,0.689,0.154,1.004C24.416,39.722,25.924,38.491,27.735,38.491z"/>
	</g>
</g>
</svg>
