<?xml version="1.0" encoding="utf-8"?>
<!-- Generator: Adobe Illustrator 19.0.1, SVG Export Plug-In . SVG Version: 6.00 Build 0)  -->
<!DOCTYPE svg PUBLIC "-//W3C//DTD SVG 1.1//EN" "http://www.w3.org/Graphics/SVG/1.1/DTD/svg11.dtd">
<svg version="1.1" id="Layer_1" xmlns="http://www.w3.org/2000/svg" xmlns:xlink="http://www.w3.org/1999/xlink" x="0px" y="0px"
	 width="72px" height="72px" viewBox="0 0 72 72" enable-background="new 0 0 72 72" xml:space="preserve">
<g>
	<path fill="#FFAA45" d="M25.268,24.264c-0.392,0-0.765-0.232-0.924-0.618l-1.217-2.937c-0.211-0.51,0.031-1.095,0.541-1.307
		c0.509-0.21,1.096,0.03,1.307,0.541l1.217,2.937c0.211,0.51-0.031,1.095-0.541,1.307C25.526,24.239,25.396,24.264,25.268,24.264z"
		/>
	<path fill="#FFAA45" d="M16.551,39.436c-0.392,0-0.765-0.232-0.924-0.617c-0.211-0.51,0.031-1.096,0.541-1.307l2.937-1.217
		c0.509-0.21,1.096,0.03,1.307,0.541c0.211,0.51-0.031,1.096-0.541,1.307l-2.937,1.217C16.808,39.411,16.678,39.436,16.551,39.436z"
		/>
	<path fill="#FFAA45" d="M39.224,30.044c-0.392,0-0.765-0.233-0.924-0.618c-0.211-0.51,0.031-1.095,0.541-1.307l2.937-1.216
		c0.508-0.21,1.096,0.031,1.307,0.541s-0.031,1.095-0.541,1.307l-2.937,1.216C39.482,30.019,39.352,30.044,39.224,30.044z"/>
	<path fill="#FFAA45" d="M33.443,24.264c-0.128,0-0.258-0.025-0.383-0.077c-0.51-0.211-0.752-0.796-0.541-1.307l1.217-2.937
		c0.212-0.511,0.8-0.752,1.307-0.541c0.51,0.211,0.752,0.796,0.541,1.307l-1.217,2.937C34.208,24.031,33.835,24.264,33.443,24.264z"
		/>
	<path fill="#FFAA45" d="M19.487,30.044c-0.128,0-0.258-0.025-0.383-0.077l-2.937-1.216c-0.51-0.211-0.752-0.796-0.541-1.307
		s0.799-0.751,1.307-0.541l2.937,1.216c0.51,0.211,0.752,0.796,0.541,1.307C20.252,29.811,19.879,30.044,19.487,30.044z"/>
	<circle fill="#FFAA45" cx="29.356" cy="33.131" r="8.291"/>
	<path fill="#FFDA69" d="M29.353,26.839L29.353,26.839c2.555,0,4.837,1.525,5.815,3.885c0.643,1.552,0.643,3.262,0,4.815
		c-0.643,1.552-1.852,2.761-3.404,3.404c-0.771,0.319-1.579,0.481-2.404,0.481c-2.555,0-4.837-1.525-5.815-3.885
		c-0.643-1.552-0.643-3.262,0-4.815c0.643-1.552,1.852-2.761,3.404-3.404C27.719,27.001,28.528,26.839,29.353,26.839"/>
	<path fill="#868686" d="M43.842,31.632c-3.586,0-6.83,1.837-8.681,4.801c-0.375-0.057-0.756-0.086-1.141-0.086
		c-2.791,0-5.307,1.555-6.594,3.936c-3.126,0.161-5.62,2.755-5.62,5.921c0,2.936,2.18,5.25,5.554,5.893
		c2.206,0.421,5.395,0.577,11.768,0.577c6.022,0,9.859-0.302,12.019-0.555c3.172-0.372,5.303-2.591,5.303-5.522
		c0-1.841-0.904-3.507-2.359-4.52c0.001-0.065,0.002-0.13,0.002-0.194C54.092,36.23,49.494,31.632,43.842,31.632L43.842,31.632z"/>
	<path fill="#E6E6E6" d="M51.971,43.239c0.073-0.443,0.121-0.894,0.121-1.357c0-4.557-3.693-8.25-8.25-8.25
		c-3.464,0-6.424,2.137-7.647,5.162c-0.667-0.287-1.402-0.448-2.174-0.448c-2.541,0-4.674,1.726-5.305,4.067
		c-0.315-0.082-0.64-0.138-0.981-0.138c-2.17,0-3.929,1.759-3.929,3.929c0,2.17,1.744,3.512,3.929,3.929
		c2.185,0.417,5.518,0.542,11.393,0.542s9.655-0.292,11.786-0.542c2.131-0.25,3.536-1.583,3.536-3.536
		C54.45,45.014,53.404,43.691,51.971,43.239z"/>
	<g>
		<path fill="#FFFFFF" d="M27.735,44.309c0.341,0,0.666,0.057,0.981,0.138c0.631-2.342,2.764-4.067,5.305-4.067
			c0.773,0,1.507,0.161,2.174,0.448c1.223-3.026,4.183-5.162,7.647-5.162c4.203,0,7.664,3.144,8.177,7.207
			c0.042-0.326,0.073-0.654,0.073-0.992c0-4.557-3.693-8.25-8.25-8.25c-3.464,0-6.424,2.137-7.647,5.162
			c-0.667-0.287-1.402-0.448-2.174-0.448c-2.541,0-4.674,1.726-5.305,4.067c-0.315-0.082-0.64-0.138-0.981-0.138
			c-2.17,0-3.929,1.759-3.929,3.929c0,0.36,0.064,0.689,0.154,1.004C24.416,45.541,25.924,44.309,27.735,44.309z"/>
	</g>
</g>
</svg>
