<?xml version="1.0" encoding="utf-8"?>
<!-- Generator: Adobe Illustrator 19.0.1, SVG Export Plug-In . SVG Version: 6.00 Build 0)  -->
<!DOCTYPE svg PUBLIC "-//W3C//DTD SVG 1.1//EN" "http://www.w3.org/Graphics/SVG/1.1/DTD/svg11.dtd">
<svg version="1.1" id="Layer_1" xmlns="http://www.w3.org/2000/svg" xmlns:xlink="http://www.w3.org/1999/xlink" x="0px" y="0px"
	 width="72px" height="72px" viewBox="0 0 72 72" enable-background="new 0 0 72 72" xml:space="preserve">
<g>
	<path fill="#868686" d="M30.139,23.186c-3.456,0-6.56,1.987-8.056,5c-3.834,0.03-6.944,3.159-6.944,7
		c0,3.716,3.023,6.257,5.866,6.762c2.196,0.39,4.727,0.571,7.966,0.571c3.22,0,5.312-0.021,7.63-0.44
		c4.093-0.739,4.704-3.642,4.704-5.306c0-1.728-0.83-3.317-2.171-4.319c0.003-0.089,0.004-0.179,0.004-0.268
		C39.139,27.224,35.102,23.186,30.139,23.186L30.139,23.186z"/>
	<path fill="#E6E6E6" d="M37.002,33.561c0.089-0.445,0.137-0.904,0.137-1.375c0-3.866-3.133-7-7-7c-3.234,0-5.948,2.196-6.752,5.176
		c-0.401-0.104-0.815-0.176-1.248-0.176c-2.762,0-5,2.238-5,5c0,2.762,2.341,4.46,4.216,4.792c1.875,0.333,4.242,0.54,7.617,0.54
		s5.195-0.032,7.274-0.408s3.059-1.453,3.059-3.338C39.306,35.279,38.339,34.023,37.002,33.561z"/>
	<g>
		<path fill="#FFFFFF" d="M22.139,32.271c0.434,0,0.847,0.073,1.248,0.176c0.803-2.98,3.517-5.176,6.752-5.176
			c3.511,0,6.408,2.586,6.914,5.955c0.051-0.34,0.086-0.685,0.086-1.04c0-3.866-3.133-7-7-7c-3.234,0-5.948,2.196-6.752,5.176
			c-0.401-0.104-0.815-0.176-1.248-0.176c-2.762,0-5,2.238-5,5c0,0.361,0.044,0.702,0.118,1.026
			C17.743,33.96,19.741,32.271,22.139,32.271z"/>
	</g>
	<path fill="#868686" d="M44.254,27.772c-3.586,0-6.83,1.837-8.681,4.801c-0.375-0.057-0.756-0.086-1.141-0.086
		c-2.791,0-5.307,1.556-6.594,3.937c-3.126,0.161-5.62,2.755-5.62,5.921c0,2.936,2.18,5.25,5.554,5.893
		c2.206,0.421,5.395,0.577,11.768,0.577c6.021,0,9.859-0.302,12.019-0.555c3.172-0.372,5.303-2.591,5.303-5.522
		c0-1.841-0.904-3.507-2.359-4.52c0.001-0.065,0.002-0.13,0.002-0.194C54.504,32.37,49.906,27.772,44.254,27.772L44.254,27.772z"/>
	<path fill="#E6E6E6" d="M52.383,39.38c0.073-0.443,0.121-0.894,0.121-1.357c0-4.557-3.693-8.25-8.25-8.25
		c-3.464,0-6.424,2.137-7.647,5.162c-0.667-0.287-1.402-0.448-2.174-0.448c-2.541,0-4.674,1.726-5.305,4.067
		c-0.315-0.082-0.64-0.139-0.981-0.139c-2.17,0-3.929,1.759-3.929,3.929c0,2.17,1.744,3.512,3.929,3.929s5.518,0.542,11.393,0.542
		s9.655-0.292,11.786-0.542s3.536-1.583,3.536-3.536C54.861,41.155,53.815,39.831,52.383,39.38z"/>
	<g>
		<path fill="#FFFFFF" d="M28.147,40.449c0.341,0,0.666,0.057,0.981,0.138c0.631-2.342,2.764-4.067,5.305-4.067
			c0.773,0,1.507,0.161,2.174,0.448c1.223-3.026,4.183-5.162,7.647-5.162c4.203,0,7.664,3.144,8.177,7.207
			c0.042-0.326,0.073-0.654,0.073-0.992c0-4.557-3.693-8.25-8.25-8.25c-3.464,0-6.424,2.137-7.647,5.162
			c-0.667-0.287-1.402-0.448-2.174-0.448c-2.541,0-4.674,1.726-5.305,4.067c-0.315-0.082-0.64-0.138-0.981-0.138
			c-2.17,0-3.929,1.759-3.929,3.929c0,0.36,0.064,0.689,0.154,1.004C24.827,41.681,26.336,40.449,28.147,40.449z"/>
	</g>
</g>
</svg>
