<?xml version="1.0" encoding="utf-8"?>
<!-- Generator: Adobe Illustrator 19.0.1, SVG Export Plug-In . SVG Version: 6.00 Build 0)  -->
<!DOCTYPE svg PUBLIC "-//W3C//DTD SVG 1.1//EN" "http://www.w3.org/Graphics/SVG/1.1/DTD/svg11.dtd">
<svg version="1.1" id="Layer_1" xmlns="http://www.w3.org/2000/svg" xmlns:xlink="http://www.w3.org/1999/xlink" x="0px" y="0px"
	 width="72px" height="72px" viewBox="0 0 72 72" enable-background="new 0 0 72 72" xml:space="preserve">
<g>
	<path fill="#FFAA45" d="M31.007,24.944c-0.393,0-0.765-0.232-0.924-0.617l-1.486-3.587c-0.211-0.511,0.031-1.096,0.541-1.307
		s1.095,0.031,1.307,0.541l1.486,3.587c0.211,0.511-0.031,1.096-0.541,1.307C31.264,24.92,31.134,24.944,31.007,24.944z"/>
	<path fill="#FFAA45" d="M42.48,52.643c-0.393,0-0.765-0.232-0.924-0.617l-1.486-3.587c-0.211-0.511,0.031-1.096,0.541-1.307
		c0.509-0.211,1.095,0.031,1.307,0.541l1.486,3.587c0.211,0.511-0.031,1.096-0.541,1.307C42.737,52.618,42.607,52.643,42.48,52.643z
		"/>
	<path fill="#FFAA45" d="M20.358,43.479c-0.393,0-0.765-0.232-0.924-0.617c-0.211-0.511,0.031-1.096,0.541-1.307l3.587-1.486
		c0.509-0.212,1.095,0.031,1.307,0.541c0.211,0.511-0.031,1.096-0.541,1.307l-3.587,1.486
		C20.615,43.455,20.485,43.479,20.358,43.479z"/>
	<path fill="#FFAA45" d="M48.056,32.007c-0.393,0-0.765-0.232-0.924-0.617c-0.211-0.511,0.031-1.096,0.541-1.307l3.587-1.486
		c0.51-0.211,1.095,0.031,1.307,0.541c0.211,0.511-0.031,1.096-0.541,1.307l-3.587,1.486C48.313,31.982,48.183,32.007,48.056,32.007
		z"/>
	<path fill="#FFAA45" d="M40.993,24.944c-0.127,0-0.257-0.024-0.382-0.076c-0.51-0.211-0.752-0.796-0.541-1.307l1.486-3.587
		c0.212-0.51,0.794-0.752,1.307-0.541c0.51,0.211,0.752,0.796,0.541,1.307l-1.486,3.587C41.758,24.712,41.386,24.944,40.993,24.944z
		"/>
	<path fill="#FFAA45" d="M29.52,52.643c-0.127,0-0.257-0.024-0.382-0.076c-0.51-0.211-0.752-0.796-0.541-1.307l1.486-3.587
		c0.211-0.51,0.795-0.752,1.307-0.541c0.51,0.211,0.752,0.796,0.541,1.307l-1.486,3.587C30.285,52.41,29.913,52.643,29.52,52.643z"
		/>
	<path fill="#FFAA45" d="M23.944,32.007c-0.127,0-0.257-0.024-0.382-0.076l-3.587-1.486c-0.51-0.211-0.752-0.796-0.541-1.307
		c0.211-0.51,0.796-0.752,1.307-0.541l3.587,1.486c0.51,0.211,0.752,0.796,0.541,1.307C24.709,31.774,24.337,32.007,23.944,32.007z"
		/>
	<path fill="#FFAA45" d="M51.642,43.479c-0.127,0-0.257-0.024-0.382-0.076l-3.587-1.486c-0.51-0.211-0.752-0.796-0.541-1.307
		c0.211-0.51,0.797-0.753,1.307-0.541l3.587,1.486c0.51,0.211,0.752,0.796,0.541,1.307C52.407,43.247,52.035,43.479,51.642,43.479z"
		/>
	<circle fill="#FFAA45" cx="36" cy="36" r="10.128"/>
	<path fill="#FFDA69" d="M35.997,27.869L35.997,27.869c3.301,0,6.249,1.971,7.513,5.02c0.831,2.006,0.831,4.215,0,6.221
		c-0.831,2.006-2.393,3.568-4.399,4.399c-0.995,0.412-2.041,0.621-3.107,0.621c-3.301,0-6.25-1.971-7.513-5.02
		c-1.715-4.141,0.258-8.904,4.399-10.62C33.885,28.078,34.93,27.869,35.997,27.869"/>
</g>
</svg>
