<?xml version="1.0" encoding="utf-8"?>
<!-- Generator: Adobe Illustrator 19.0.1, SVG Export Plug-In . SVG Version: 6.00 Build 0)  -->
<!DOCTYPE svg PUBLIC "-//W3C//DTD SVG 1.1//EN" "http://www.w3.org/Graphics/SVG/1.1/DTD/svg11.dtd">
<svg version="1.1" id="Layer_1" xmlns="http://www.w3.org/2000/svg" xmlns:xlink="http://www.w3.org/1999/xlink" x="0px" y="0px"
	 width="72px" height="72px" viewBox="0 0 72 72" enable-background="new 0 0 72 72" xml:space="preserve">
<g>
	<path fill="#FFAA45" d="M25.268,17.274c-0.392,0-0.765-0.232-0.924-0.618l-1.217-2.937c-0.211-0.51,0.031-1.095,0.541-1.307
		c0.508-0.209,1.096,0.03,1.307,0.541l1.217,2.937c0.211,0.51-0.031,1.095-0.541,1.307C25.526,17.249,25.396,17.274,25.268,17.274z"
		/>
	<path fill="#FFAA45" d="M16.551,32.446c-0.392,0-0.765-0.233-0.924-0.618c-0.211-0.51,0.031-1.095,0.541-1.307l2.937-1.216
		c0.508-0.209,1.096,0.031,1.307,0.541s-0.031,1.095-0.541,1.307l-2.937,1.216C16.808,32.421,16.679,32.446,16.551,32.446z"/>
	<path fill="#FFAA45" d="M39.224,23.055c-0.392,0-0.765-0.233-0.924-0.618c-0.211-0.51,0.031-1.095,0.541-1.307l2.937-1.216
		c0.509-0.209,1.095,0.031,1.307,0.541c0.211,0.51-0.031,1.095-0.541,1.307l-2.937,1.216C39.482,23.03,39.352,23.055,39.224,23.055z
		"/>
	<path fill="#FFAA45" d="M33.443,17.274c-0.128,0-0.258-0.025-0.383-0.077c-0.51-0.211-0.752-0.796-0.541-1.307l1.217-2.937
		c0.211-0.511,0.799-0.751,1.307-0.541c0.51,0.211,0.752,0.796,0.541,1.307l-1.217,2.937C34.208,17.041,33.835,17.274,33.443,17.274
		z"/>
	<path fill="#FFAA45" d="M19.487,23.055c-0.128,0-0.258-0.025-0.383-0.077l-2.937-1.216c-0.51-0.211-0.752-0.796-0.541-1.307
		c0.212-0.51,0.798-0.75,1.307-0.541l2.937,1.216c0.51,0.211,0.752,0.796,0.541,1.307C20.252,22.822,19.879,23.055,19.487,23.055z"
		/>
	<circle fill="#FFAA45" cx="29.356" cy="26.142" r="8.291"/>
	<path fill="#FFDA69" d="M29.353,19.849L29.353,19.849c2.555,0,4.837,1.525,5.815,3.885c0.643,1.552,0.643,3.262,0,4.815
		c-0.643,1.552-1.852,2.761-3.404,3.404c-0.771,0.319-1.579,0.481-2.404,0.481c-2.555,0-4.837-1.525-5.815-3.885
		c-1.327-3.205,0.2-6.892,3.404-8.219C27.719,20.011,28.528,19.849,29.353,19.849"/>
	<path fill="#45ABFF" d="M29.949,57.662c-0.117,0-0.235-0.021-0.352-0.063c-0.517-0.194-0.778-0.771-0.585-1.288l0.751-2
		c0.195-0.519,0.771-0.776,1.288-0.585c0.517,0.194,0.778,0.771,0.585,1.288l-0.751,2C30.734,57.415,30.353,57.662,29.949,57.662z"
		/>
	<path fill="#45ABFF" d="M32.2,51.662c-0.116,0-0.235-0.021-0.351-0.063c-0.518-0.193-0.779-0.771-0.586-1.287l0.749-2
		c0.193-0.517,0.771-0.777,1.287-0.586c0.518,0.193,0.779,0.771,0.586,1.287l-0.749,2C32.986,51.414,32.605,51.662,32.2,51.662z"/>
	<path fill="#45ABFF" d="M43.699,57.662c-0.117,0-0.235-0.021-0.352-0.063c-0.517-0.194-0.778-0.771-0.585-1.288l0.751-2
		c0.195-0.519,0.771-0.776,1.288-0.585c0.517,0.194,0.778,0.771,0.585,1.288l-0.751,2C44.484,57.415,44.103,57.662,43.699,57.662z"
		/>
	<path fill="#45ABFF" d="M45.949,51.662c-0.117,0-0.235-0.021-0.352-0.063c-0.517-0.194-0.778-0.771-0.585-1.288l0.75-2
		c0.193-0.518,0.77-0.775,1.288-0.585c0.517,0.194,0.778,0.771,0.585,1.288l-0.75,2C46.735,51.415,46.353,51.662,45.949,51.662z"/>
	<path fill="#45ABFF" d="M36.324,59.663c-0.117,0-0.235-0.021-0.352-0.063c-0.517-0.194-0.778-0.771-0.585-1.288l0.75-2
		c0.193-0.518,0.771-0.776,1.288-0.585c0.517,0.194,0.778,0.771,0.585,1.288l-0.75,2C37.11,59.416,36.728,59.663,36.324,59.663z"/>
	<path fill="#45ABFF" d="M38.574,53.662c-0.117,0-0.235-0.021-0.352-0.063c-0.517-0.194-0.778-0.771-0.585-1.288l0.75-2
		c0.193-0.518,0.771-0.776,1.288-0.585c0.517,0.194,0.778,0.771,0.585,1.288l-0.75,2C39.36,53.415,38.978,53.662,38.574,53.662z"/>
	<path fill="#868686" d="M43.842,24.642c-3.586,0-6.83,1.837-8.681,4.801c-0.375-0.057-0.756-0.086-1.141-0.086
		c-2.791,0-5.307,1.556-6.594,3.937c-3.126,0.161-5.62,2.755-5.62,5.921c0,2.936,2.18,5.25,5.554,5.893
		c2.206,0.421,5.395,0.577,11.768,0.577c6.022,0,9.859-0.302,12.019-0.555c3.172-0.372,5.303-2.591,5.303-5.522
		c0-1.841-0.904-3.507-2.359-4.52c0.001-0.065,0.002-0.13,0.002-0.194C54.092,29.24,49.494,24.642,43.842,24.642L43.842,24.642z"/>
	<path fill="#E6E6E6" d="M51.971,36.25c0.073-0.443,0.121-0.894,0.121-1.357c0-4.557-3.693-8.25-8.25-8.25
		c-3.464,0-6.424,2.137-7.647,5.162c-0.667-0.287-1.402-0.448-2.174-0.448c-2.541,0-4.674,1.726-5.305,4.067
		c-0.315-0.082-0.64-0.138-0.981-0.138c-2.17,0-3.929,1.759-3.929,3.929c0,2.17,1.744,3.512,3.929,3.929s5.518,0.542,11.393,0.542
		s9.655-0.292,11.786-0.542c2.131-0.25,3.536-1.583,3.536-3.536C54.449,38.025,53.404,36.702,51.971,36.25z"/>
	<g>
		<path fill="#FFFFFF" d="M27.735,37.319c0.341,0,0.666,0.057,0.981,0.138c0.631-2.342,2.764-4.067,5.305-4.067
			c0.773,0,1.507,0.161,2.174,0.448c1.223-3.026,4.183-5.162,7.647-5.162c4.203,0,7.664,3.144,8.177,7.207
			c0.042-0.326,0.073-0.654,0.073-0.992c0-4.557-3.693-8.25-8.25-8.25c-3.464,0-6.424,2.137-7.647,5.162
			c-0.667-0.287-1.402-0.448-2.174-0.448c-2.541,0-4.674,1.726-5.305,4.067c-0.315-0.082-0.64-0.138-0.981-0.138
			c-2.17,0-3.929,1.759-3.929,3.929c0,0.36,0.064,0.689,0.154,1.004C24.416,38.551,25.924,37.319,27.735,37.319z"/>
	</g>
</g>
</svg>
