<?xml version="1.0" encoding="utf-8"?>
<!-- Generator: Adobe Illustrator 19.0.1, SVG Export Plug-In . SVG Version: 6.00 Build 0)  -->
<!DOCTYPE svg PUBLIC "-//W3C//DTD SVG 1.1//EN" "http://www.w3.org/Graphics/SVG/1.1/DTD/svg11.dtd">
<svg version="1.1" id="Layer_1" xmlns="http://www.w3.org/2000/svg" xmlns:xlink="http://www.w3.org/1999/xlink" x="0px" y="0px"
	 width="72px" height="72px" viewBox="0 0 72 72" enable-background="new 0 0 72 72" xml:space="preserve">
<g>
	<path fill="#FFAA45" d="M42.48,44.808c-0.392,0-0.765-0.232-0.924-0.617l-1.486-3.588c-0.211-0.511,0.031-1.096,0.541-1.307
		c0.509-0.21,1.096,0.03,1.307,0.541l1.486,3.588c0.211,0.511-0.031,1.096-0.541,1.307C42.738,44.784,42.608,44.808,42.48,44.808z"
		/>
	<path fill="#FFAA45" d="M20.358,35.644c-0.392,0-0.765-0.232-0.924-0.617c-0.211-0.511,0.031-1.096,0.541-1.307l3.587-1.485
		c0.509-0.209,1.096,0.031,1.307,0.541c0.211,0.511-0.031,1.096-0.541,1.307l-3.587,1.485C20.616,35.62,20.486,35.644,20.358,35.644
		z"/>
	<path fill="#FFAA45" d="M29.521,44.808c-0.128,0-0.258-0.024-0.383-0.076c-0.51-0.211-0.752-0.796-0.541-1.307l1.485-3.588
		c0.211-0.511,0.799-0.751,1.307-0.541c0.51,0.211,0.752,0.796,0.541,1.307l-1.485,3.588C30.286,44.576,29.913,44.808,29.521,44.808
		z"/>
	<path fill="#FFAA45" d="M51.643,35.644c-0.128,0-0.258-0.024-0.383-0.076l-3.588-1.485c-0.51-0.211-0.752-0.796-0.541-1.307
		s0.799-0.751,1.307-0.541l3.588,1.485c0.51,0.211,0.752,0.796,0.541,1.307C52.408,35.412,52.035,35.644,51.643,35.644z"/>
	<path fill="#FFAA45" d="M25.874,28.191c0.003,1.285,0.247,2.59,0.769,3.85c2.141,5.168,8.065,7.622,13.233,5.481
		c3.891-1.612,6.241-5.368,6.253-9.331H25.874z"/>
	<path fill="#FFDA69" d="M44.131,28.191c-0.003,1.045-0.21,2.09-0.622,3.085c-0.831,2.006-2.393,3.568-4.399,4.399
		c-0.995,0.412-2.041,0.621-3.107,0.621c-3.301,0-6.25-1.971-7.513-5.02c-0.412-0.995-0.619-2.04-0.622-3.085H44.131z"/>
	<path fill="#CB0000" d="M56.083,29.192H15.917c-0.552,0-1-0.447-1-1s0.448-1,1-1h40.167c0.552,0,1,0.447,1,1
		S56.636,29.192,56.083,29.192z"/>
</g>
</svg>
