<?xml version="1.0" encoding="utf-8"?>
<!-- Generator: Adobe Illustrator 19.0.1, SVG Export Plug-In . SVG Version: 6.00 Build 0)  -->
<!DOCTYPE svg PUBLIC "-//W3C//DTD SVG 1.1//EN" "http://www.w3.org/Graphics/SVG/1.1/DTD/svg11.dtd">
<svg version="1.1" id="Layer_1" xmlns="http://www.w3.org/2000/svg" xmlns:xlink="http://www.w3.org/1999/xlink" x="0px" y="0px"
	 width="72px" height="72px" viewBox="0 0 72 72" enable-background="new 0 0 72 72" xml:space="preserve">
<g>
	<path fill="#FFAA45" d="M39.208,35.391c-0.393,0-0.765-0.232-0.924-0.617l-1.216-2.938c-0.211-0.511,0.031-1.096,0.541-1.307
		c0.509-0.211,1.096,0.03,1.307,0.541l1.216,2.938c0.211,0.511-0.031,1.096-0.541,1.307C39.466,35.367,39.336,35.391,39.208,35.391z
		"/>
	<path fill="#FFAA45" d="M21.1,27.889c-0.393,0-0.765-0.232-0.924-0.617c-0.211-0.511,0.031-1.096,0.541-1.307l2.937-1.216
		c0.51-0.21,1.096,0.031,1.307,0.541c0.211,0.511-0.031,1.096-0.541,1.307l-2.937,1.216C21.358,27.865,21.228,27.889,21.1,27.889z"
		/>
	<path fill="#FFAA45" d="M28.601,35.391c-0.128,0-0.258-0.024-0.383-0.076c-0.51-0.211-0.752-0.796-0.541-1.307l1.216-2.938
		c0.212-0.511,0.798-0.752,1.307-0.541c0.51,0.211,0.752,0.796,0.541,1.307l-1.216,2.938C29.365,35.159,28.993,35.391,28.601,35.391
		z"/>
	<path fill="#FFAA45" d="M46.709,27.889c-0.128,0-0.258-0.024-0.383-0.076l-2.937-1.216c-0.51-0.211-0.752-0.796-0.541-1.307
		s0.798-0.752,1.307-0.541l2.937,1.216c0.51,0.211,0.752,0.796,0.541,1.307C47.474,27.657,47.101,27.889,46.709,27.889z"/>
	<path fill="#FFAA45" d="M25.615,21.606c0.002,1.052,0.202,2.12,0.63,3.152c1.752,4.23,6.602,6.239,10.832,4.487
		c3.185-1.319,5.109-4.394,5.118-7.639H25.615z"/>
	<path fill="#FFDA69" d="M40.194,21.606c-0.011,2.459-1.472,4.792-3.882,5.791c-0.771,0.319-1.58,0.481-2.404,0.481
		c-2.555,0-4.837-1.525-5.815-3.885c-0.319-0.77-0.479-1.578-0.481-2.386H40.194z"/>
	<path fill="#CB0000" d="M49.987,22.606H17.821c-0.553,0-1-0.447-1-1s0.447-1,1-1h32.166c0.553,0,1,0.447,1,1
		S50.54,22.606,49.987,22.606z"/>
	<path fill="#868686" d="M44.012,32.061c-3.456,0-6.56,1.987-8.056,5c-3.834,0.03-6.944,3.159-6.944,7
		c0,3.716,3.023,6.257,5.866,6.762c2.196,0.39,4.727,0.571,7.967,0.571c3.221,0,5.312-0.021,7.63-0.44
		c4.093-0.739,4.704-3.642,4.704-5.306c0-1.728-0.83-3.317-2.171-4.319c0.003-0.089,0.004-0.179,0.004-0.268
		C53.012,36.099,48.975,32.061,44.012,32.061L44.012,32.061z"/>
	<path fill="#E6E6E6" d="M50.875,42.436c0.089-0.445,0.137-0.904,0.137-1.375c0-3.866-3.133-7-7-7c-3.234,0-5.948,2.196-6.752,5.176
		c-0.401-0.104-0.815-0.176-1.248-0.176c-2.762,0-5,2.238-5,5c0,2.762,2.341,4.46,4.216,4.792s4.242,0.54,7.617,0.54
		c3.375,0,5.195-0.032,7.274-0.408c2.079-0.376,3.059-1.453,3.059-3.338C53.179,44.154,52.212,42.898,50.875,42.436z"/>
	<g>
		<path fill="#FFFFFF" d="M36.012,41.146c0.434,0,0.847,0.073,1.248,0.176c0.803-2.98,3.517-5.176,6.752-5.176
			c3.511,0,6.408,2.586,6.914,5.955c0.051-0.34,0.086-0.685,0.086-1.04c0-3.866-3.133-7-7-7c-3.234,0-5.948,2.196-6.752,5.176
			c-0.401-0.104-0.815-0.176-1.248-0.176c-2.762,0-5,2.238-5,5c0,0.361,0.044,0.702,0.118,1.026
			C31.616,42.835,33.614,41.146,36.012,41.146z"/>
	</g>
</g>
</svg>
