<?xml version="1.0" encoding="utf-8"?>
<!-- Generator: Adobe Illustrator 19.0.1, SVG Export Plug-In . SVG Version: 6.00 Build 0)  -->
<!DOCTYPE svg PUBLIC "-//W3C//DTD SVG 1.1//EN" "http://www.w3.org/Graphics/SVG/1.1/DTD/svg11.dtd">
<svg version="1.1" id="Layer_1" xmlns="http://www.w3.org/2000/svg" xmlns:xlink="http://www.w3.org/1999/xlink" x="0px" y="0px"
	 width="72px" height="72px" viewBox="0 0 72 72" enable-background="new 0 0 72 72" xml:space="preserve">
<g>
	<path fill="#FFAA45" d="M33.798,31.394c-0.393,0-0.765-0.232-0.924-0.617l-1.216-2.938c-0.211-0.511,0.031-1.096,0.541-1.307
		c0.509-0.211,1.096,0.03,1.307,0.541l1.216,2.938c0.211,0.511-0.031,1.096-0.541,1.307C34.056,31.37,33.926,31.394,33.798,31.394z"
		/>
	<path fill="#FFAA45" d="M15.69,23.892c-0.393,0-0.765-0.232-0.924-0.617c-0.211-0.511,0.031-1.096,0.541-1.307l2.937-1.216
		c0.51-0.21,1.096,0.031,1.307,0.541c0.211,0.511-0.031,1.096-0.541,1.307l-2.937,1.216C15.948,23.868,15.818,23.892,15.69,23.892z"
		/>
	<path fill="#FFAA45" d="M23.191,31.394c-0.128,0-0.258-0.024-0.383-0.076c-0.51-0.211-0.752-0.796-0.541-1.307l1.216-2.938
		c0.212-0.511,0.798-0.752,1.307-0.541c0.51,0.211,0.752,0.796,0.541,1.307l-1.216,2.938C23.956,31.162,23.584,31.394,23.191,31.394
		z"/>
	<path fill="#FFAA45" d="M41.299,23.892c-0.128,0-0.258-0.024-0.383-0.076L37.98,22.6c-0.51-0.211-0.752-0.796-0.541-1.307
		s0.798-0.752,1.307-0.541l2.937,1.216c0.51,0.211,0.752,0.796,0.541,1.307C42.064,23.66,41.691,23.892,41.299,23.892z"/>
	<path fill="#FFAA45" d="M20.205,17.61c0.002,1.052,0.202,2.12,0.63,3.152c1.752,4.23,6.602,6.239,10.832,4.487
		c3.185-1.319,5.109-4.394,5.118-7.639H20.205z"/>
	<path fill="#FFDA69" d="M34.784,17.61c-0.011,2.459-1.472,4.792-3.882,5.791c-0.771,0.319-1.58,0.481-2.404,0.481
		c-2.555,0-4.837-1.525-5.815-3.885c-0.319-0.77-0.479-1.578-0.481-2.386H34.784z"/>
	<path fill="#CB0000" d="M44.578,18.609H12.412c-0.553,0-1-0.447-1-1s0.447-1,1-1h32.166c0.553,0,1,0.447,1,1
		S45.13,18.609,44.578,18.609z"/>
	<path fill="#45ABFF" d="M46.799,45.734c-0.955,0-1.733,0.769-1.75,1.72c-0.259-0.144-0.552-0.22-0.848-0.22
		c-0.624,0-1.205,0.335-1.516,0.875c-0.477,0.827-0.201,1.885,0.614,2.375c-0.815,0.489-1.091,1.548-0.614,2.375
		c0.311,0.54,0.892,0.875,1.516,0.875c0.296,0,0.589-0.076,0.848-0.219c0.016,0.951,0.795,1.719,1.75,1.719s1.733-0.769,1.75-1.719
		c0.259,0.144,0.551,0.219,0.848,0.219c0.624,0,1.205-0.336,1.516-0.876c0.477-0.826,0.2-1.885-0.615-2.374
		c0.815-0.489,1.091-1.548,0.614-2.375c-0.311-0.54-0.892-0.875-1.516-0.875c-0.296,0-0.588,0.076-0.848,0.22
		C48.532,46.503,47.754,45.734,46.799,45.734L46.799,45.734z"/>
	<path fill="#868686" d="M47.981,22.089c-3.586,0-6.83,1.837-8.681,4.801c-0.375-0.057-0.756-0.086-1.141-0.086
		c-2.791,0-5.307,1.555-6.594,3.937c-3.126,0.161-5.62,2.755-5.62,5.921c0,2.936,2.18,5.25,5.554,5.893
		c2.206,0.421,5.395,0.577,11.768,0.577c6.022,0,9.859-0.302,12.019-0.555c3.172-0.372,5.303-2.591,5.303-5.522
		c0-1.841-0.904-3.508-2.359-4.52c0.001-0.065,0.002-0.13,0.002-0.194C58.231,26.688,53.633,22.089,47.981,22.089L47.981,22.089z"/>
	<path fill="#45ABFF" d="M37.245,55.391c-0.117,0-0.235-0.021-0.351-0.063c-0.517-0.194-0.779-0.771-0.585-1.288l0.75-2
		c0.194-0.517,0.771-0.776,1.288-0.585c0.517,0.194,0.779,0.771,0.585,1.288l-0.75,2C38.031,55.144,37.65,55.391,37.245,55.391z"/>
	<path fill="#45ABFF" d="M39.495,49.391c-0.117,0-0.235-0.021-0.351-0.063c-0.517-0.194-0.779-0.771-0.585-1.288l0.75-2
		c0.194-0.517,0.771-0.777,1.288-0.585c0.517,0.194,0.779,0.771,0.585,1.288l-0.75,2C40.281,49.144,39.9,49.391,39.495,49.391z"/>
	<path fill="#E6E6E6" d="M56.11,33.697c0.073-0.443,0.121-0.894,0.121-1.357c0-4.557-3.693-8.25-8.25-8.25
		c-3.464,0-6.424,2.137-7.647,5.162c-0.667-0.287-1.402-0.448-2.174-0.448c-2.541,0-4.674,1.726-5.305,4.067
		c-0.315-0.082-0.64-0.138-0.981-0.138c-2.17,0-3.929,1.759-3.929,3.929c0,2.17,1.744,3.512,3.929,3.929s5.518,0.542,11.393,0.542
		s9.655-0.292,11.786-0.542c2.131-0.25,3.536-1.583,3.536-3.536C58.588,35.472,57.543,34.149,56.11,33.697z"/>
	<g>
		<path fill="#FFFFFF" d="M31.874,34.767c0.341,0,0.666,0.057,0.981,0.138c0.631-2.342,2.764-4.067,5.305-4.067
			c0.773,0,1.507,0.161,2.174,0.448c1.223-3.026,4.183-5.162,7.647-5.162c4.203,0,7.664,3.144,8.177,7.207
			c0.042-0.326,0.073-0.654,0.073-0.992c0-4.557-3.693-8.25-8.25-8.25c-3.464,0-6.424,2.137-7.647,5.162
			c-0.667-0.287-1.402-0.448-2.174-0.448c-2.541,0-4.674,1.726-5.305,4.067c-0.315-0.082-0.64-0.138-0.981-0.138
			c-2.17,0-3.929,1.759-3.929,3.929c0,0.36,0.064,0.689,0.154,1.004C28.554,35.998,30.063,34.767,31.874,34.767z"/>
	</g>
	<path fill="#FFFFFF" d="M49.772,51.335l-1.473-0.851l1.473-0.851c0.359-0.207,0.481-0.666,0.274-1.024s-0.666-0.481-1.024-0.274
		l-1.473,0.851v-1.701c0-0.414-0.336-0.75-0.75-0.75s-0.75,0.336-0.75,0.75v1.701l-1.473-0.851
		c-0.358-0.207-0.817-0.084-1.024,0.274s-0.084,0.817,0.274,1.024l1.473,0.851l-1.473,0.851c-0.359,0.207-0.481,0.666-0.274,1.024
		c0.139,0.241,0.391,0.375,0.65,0.375c0.127,0,0.256-0.032,0.375-0.101l1.473-0.851v1.701c0,0.414,0.336,0.75,0.75,0.75
		s0.75-0.336,0.75-0.75v-1.701l1.473,0.851c0.118,0.068,0.247,0.101,0.375,0.101c0.259,0,0.511-0.134,0.65-0.375
		C50.254,52,50.131,51.542,49.772,51.335z"/>
</g>
</svg>
