<?xml version="1.0" encoding="utf-8"?>
<!-- Generator: Adobe Illustrator 19.0.1, SVG Export Plug-In . SVG Version: 6.00 Build 0)  -->
<!DOCTYPE svg PUBLIC "-//W3C//DTD SVG 1.1//EN" "http://www.w3.org/Graphics/SVG/1.1/DTD/svg11.dtd">
<svg version="1.1" id="Layer_1" xmlns="http://www.w3.org/2000/svg" xmlns:xlink="http://www.w3.org/1999/xlink" x="0px" y="0px"
	 width="72px" height="72px" viewBox="0 0 72 72" enable-background="new 0 0 72 72" xml:space="preserve">
<g>
	<path fill="#FFAA45" d="M33.8,30.534c-0.393,0-0.765-0.232-0.924-0.617l-1.217-2.937c-0.211-0.51,0.031-1.096,0.541-1.307
		s1.095,0.031,1.307,0.541l1.217,2.937c0.211,0.51-0.031,1.096-0.541,1.307C34.057,30.51,33.927,30.534,33.8,30.534z"/>
	<path fill="#FFAA45" d="M15.69,23.033c-0.393,0-0.765-0.232-0.924-0.617c-0.211-0.511,0.031-1.096,0.542-1.307l2.937-1.216
		c0.51-0.211,1.095,0.031,1.306,0.541c0.211,0.511-0.031,1.096-0.542,1.307l-2.937,1.216C15.947,23.009,15.818,23.033,15.69,23.033z
		"/>
	<path fill="#FFAA45" d="M23.19,30.535c-0.127,0-0.257-0.024-0.382-0.076c-0.51-0.211-0.752-0.796-0.541-1.307l1.217-2.938
		c0.211-0.51,0.794-0.752,1.307-0.541c0.51,0.211,0.752,0.796,0.541,1.307l-1.217,2.938C23.955,30.303,23.583,30.535,23.19,30.535z"
		/>
	<path fill="#FFAA45" d="M41.3,23.033c-0.128,0-0.258-0.024-0.383-0.076l-2.937-1.216c-0.51-0.211-0.752-0.796-0.541-1.307
		s0.8-0.752,1.307-0.541l2.937,1.216c0.51,0.211,0.752,0.796,0.541,1.307C42.065,22.801,41.692,23.033,41.3,23.033z"/>
	<path fill="#FFAA45" d="M20.206,16.75c0.002,1.052,0.202,2.12,0.63,3.152c1.752,4.23,6.602,6.239,10.832,4.487
		c3.185-1.319,5.109-4.394,5.118-7.639H20.206z"/>
	<path fill="#FFDA69" d="M34.788,16.75c-0.003,0.809-0.162,1.617-0.481,2.386c-0.643,1.552-1.852,2.761-3.405,3.404
		c-0.771,0.319-1.579,0.481-2.404,0.481c-2.555,0-4.837-1.525-5.815-3.885c-0.323-0.781-0.474-1.59-0.476-2.386H34.788z"/>
	<path fill="#CB0000" d="M44.578,17.75H12.411c-0.552,0-1-0.447-1-1s0.448-1,1-1h32.167c0.553,0,1,0.447,1,1
		S45.131,17.75,44.578,17.75z"/>
	<path fill="#868686" d="M47.981,21.23c-3.586,0-6.83,1.837-8.681,4.801c-0.375-0.057-0.756-0.086-1.141-0.086
		c-2.791,0-5.307,1.556-6.594,3.937c-3.126,0.161-5.62,2.755-5.62,5.921c0,2.936,2.18,5.25,5.554,5.893
		c2.206,0.421,5.395,0.577,11.768,0.577c6.022,0,9.86-0.302,12.019-0.555c3.172-0.372,5.303-2.591,5.303-5.522
		c0-1.841-0.904-3.507-2.359-4.52c0.001-0.065,0.002-0.13,0.002-0.194C58.231,25.828,53.633,21.23,47.981,21.23L47.981,21.23z"/>
	<path fill="#45ABFF" d="M34.089,54.25c-0.117,0-0.235-0.021-0.352-0.063c-0.517-0.194-0.779-0.771-0.584-1.288l0.75-2
		c0.194-0.517,0.768-0.777,1.288-0.585c0.517,0.194,0.778,0.771,0.585,1.288l-0.751,2C34.874,54.003,34.493,54.25,34.089,54.25z"/>
	<path fill="#45ABFF" d="M36.339,48.25c-0.117,0-0.235-0.021-0.352-0.063c-0.517-0.194-0.779-0.771-0.585-1.288l0.75-2
		c0.194-0.518,0.771-0.777,1.288-0.585c0.517,0.194,0.778,0.771,0.585,1.288l-0.75,2C37.125,48.003,36.743,48.25,36.339,48.25z"/>
	<path fill="#45ABFF" d="M47.838,54.25c-0.117,0-0.235-0.021-0.352-0.063c-0.517-0.194-0.778-0.771-0.585-1.288l0.751-2
		c0.195-0.518,0.77-0.776,1.288-0.585c0.517,0.194,0.778,0.771,0.585,1.288l-0.751,2C48.623,54.003,48.242,54.25,47.838,54.25z"/>
	<path fill="#45ABFF" d="M50.089,48.25c-0.116,0-0.235-0.021-0.351-0.063c-0.518-0.193-0.779-0.771-0.586-1.287l0.749-2
		c0.193-0.516,0.771-0.779,1.287-0.586c0.518,0.193,0.779,0.771,0.586,1.287l-0.749,2C50.875,48.002,50.494,48.25,50.089,48.25z"/>
	<path fill="#45ABFF" d="M40.463,56.25c-0.117,0-0.235-0.021-0.352-0.063c-0.517-0.194-0.778-0.771-0.585-1.288l0.75-2
		c0.194-0.518,0.771-0.777,1.288-0.585c0.517,0.194,0.778,0.771,0.585,1.288l-0.75,2C41.249,56.003,40.867,56.25,40.463,56.25z"/>
	<path fill="#45ABFF" d="M42.714,50.25c-0.117,0-0.235-0.021-0.352-0.063c-0.517-0.194-0.778-0.771-0.585-1.288l0.75-2
		c0.193-0.519,0.771-0.776,1.288-0.585c0.517,0.194,0.778,0.771,0.585,1.288l-0.75,2C43.5,50.003,43.118,50.25,42.714,50.25z"/>
	<path fill="#E6E6E6" d="M56.11,32.838c0.073-0.443,0.121-0.894,0.121-1.357c0-4.557-3.693-8.25-8.25-8.25
		c-3.464,0-6.424,2.137-7.647,5.162c-0.667-0.287-1.402-0.448-2.174-0.448c-2.541,0-4.674,1.726-5.305,4.067
		c-0.315-0.082-0.64-0.138-0.981-0.138c-2.17,0-3.929,1.759-3.929,3.929c0,2.17,1.744,3.512,3.929,3.929
		c2.185,0.417,5.518,0.542,11.393,0.542s9.655-0.292,11.786-0.542c2.131-0.25,3.536-1.583,3.536-3.536
		C58.589,34.613,57.543,33.289,56.11,32.838z"/>
	<g>
		<path fill="#FFFFFF" d="M31.874,33.907c0.341,0,0.666,0.057,0.981,0.138c0.631-2.342,2.764-4.067,5.305-4.067
			c0.773,0,1.507,0.161,2.174,0.448c1.223-3.026,4.183-5.162,7.647-5.162c4.203,0,7.664,3.144,8.177,7.207
			c0.042-0.326,0.073-0.654,0.073-0.992c0-4.557-3.693-8.25-8.25-8.25c-3.464,0-6.424,2.137-7.647,5.162
			c-0.667-0.287-1.402-0.448-2.174-0.448c-2.541,0-4.674,1.726-5.305,4.067c-0.315-0.082-0.64-0.138-0.981-0.138
			c-2.17,0-3.929,1.759-3.929,3.929c0,0.36,0.064,0.689,0.154,1.004C28.555,35.139,30.064,33.907,31.874,33.907z"/>
	</g>
</g>
</svg>
