<?xml version="1.0" encoding="utf-8"?>
<!-- Generator: Adobe Illustrator 19.0.1, SVG Export Plug-In . SVG Version: 6.00 Build 0)  -->
<!DOCTYPE svg PUBLIC "-//W3C//DTD SVG 1.1//EN" "http://www.w3.org/Graphics/SVG/1.1/DTD/svg11.dtd">
<svg version="1.1" id="Layer_1" xmlns="http://www.w3.org/2000/svg" xmlns:xlink="http://www.w3.org/1999/xlink" x="0px" y="0px"
	 width="72px" height="72px" viewBox="0 0 72 72" enable-background="new 0 0 72 72" xml:space="preserve">
<g>
	<g>
		<path fill="#BFBFBF" d="M40.714,25.479c-3.586,0-6.83,1.837-8.681,4.801c-0.375-0.057-0.756-0.086-1.141-0.086
			c-2.791,0-5.307,1.555-6.594,3.936c-3.126,0.161-5.62,2.755-5.62,5.921c0,2.936,2.18,5.25,5.554,5.893
			c2.205,0.421,5.395,0.577,11.768,0.577c6.022,0,9.859-0.302,12.019-0.555c3.172-0.372,5.303-2.591,5.303-5.522
			c0-1.841-0.904-3.507-2.359-4.52c0.001-0.065,0.002-0.13,0.002-0.194C50.964,30.077,46.366,25.479,40.714,25.479L40.714,25.479z"
			/>
	</g>
	<g>
		<path fill="#FFFFFF" d="M48.876,36.838c0.051-0.363,0.088-0.732,0.088-1.109c0-0.301-0.018-0.598-0.05-0.891H26.214
			c-0.268,0.44-0.488,0.913-0.626,1.422c-0.315-0.082-0.64-0.138-0.981-0.138c-0.839,0-1.613,0.268-2.252,0.716H48.876z"/>
		<path fill="#FFFFFF" d="M51.321,40.443c0-0.58-0.143-1.125-0.392-1.605h-30.04c-0.125,0.384-0.21,0.786-0.21,1.212
			c0,0.276,0.03,0.539,0.083,0.788h30.523C51.299,40.707,51.321,40.581,51.321,40.443z"/>
		<path fill="#FFFFFF" d="M22.036,42.838c0.688,0.562,1.578,0.952,2.571,1.141c2.184,0.417,5.518,0.542,11.393,0.542
			s9.655-0.292,11.786-0.542c1.072-0.126,1.958-0.526,2.577-1.141H22.036z"/>
		<path fill="#FFFFFF" d="M36.23,28.838h9.016c-1.301-0.857-2.857-1.359-4.531-1.359c-1.861,0-3.565,0.631-4.944,1.671
			C35.927,29.05,36.065,28.931,36.23,28.838z"/>
		<path fill="#FFFFFF" d="M48.433,32.838c-0.27-0.72-0.636-1.391-1.086-2h-13.25c-0.411,0.555-0.768,1.153-1.03,1.803
			c-0.667-0.287-1.402-0.448-2.174-0.448c-0.932,0-1.806,0.236-2.574,0.645H48.433z"/>
	</g>
</g>
</svg>
