<?xml version="1.0" encoding="utf-8"?>
<!-- Generator: Adobe Illustrator 19.0.1, SVG Export Plug-In . SVG Version: 6.00 Build 0)  -->
<!DOCTYPE svg PUBLIC "-//W3C//DTD SVG 1.1//EN" "http://www.w3.org/Graphics/SVG/1.1/DTD/svg11.dtd">
<svg version="1.1" id="Layer_1" xmlns="http://www.w3.org/2000/svg" xmlns:xlink="http://www.w3.org/1999/xlink" x="0px" y="0px"
	 width="72px" height="72px" viewBox="0 0 72 72" enable-background="new 0 0 72 72" xml:space="preserve">
<g>
	<path fill="#FFAA45" d="M33.798,31.705c-0.393,0-0.765-0.232-0.924-0.617l-1.216-2.938c-0.211-0.511,0.031-1.096,0.541-1.307
		c0.509-0.211,1.096,0.03,1.307,0.541l1.216,2.938c0.211,0.511-0.031,1.096-0.541,1.307C34.056,31.681,33.926,31.705,33.798,31.705z
		"/>
	<path fill="#FFAA45" d="M15.69,24.203c-0.393,0-0.765-0.232-0.924-0.617c-0.211-0.511,0.031-1.096,0.541-1.307l2.937-1.216
		c0.51-0.21,1.096,0.031,1.307,0.541c0.211,0.511-0.031,1.096-0.541,1.307l-2.937,1.216C15.948,24.179,15.818,24.203,15.69,24.203z"
		/>
	<path fill="#FFAA45" d="M23.191,31.705c-0.128,0-0.258-0.024-0.383-0.076c-0.51-0.211-0.752-0.796-0.541-1.307l1.216-2.938
		c0.212-0.511,0.798-0.752,1.307-0.541c0.51,0.211,0.752,0.796,0.541,1.307l-1.216,2.938C23.956,31.473,23.584,31.705,23.191,31.705
		z"/>
	<path fill="#FFAA45" d="M41.299,24.203c-0.128,0-0.258-0.024-0.383-0.076l-2.937-1.216c-0.51-0.211-0.752-0.796-0.541-1.307
		s0.798-0.752,1.307-0.541l2.937,1.216c0.51,0.211,0.752,0.796,0.541,1.307C42.064,23.971,41.691,24.203,41.299,24.203z"/>
	<path fill="#FFAA45" d="M20.205,17.921c0.002,1.052,0.202,2.12,0.63,3.152c1.752,4.23,6.602,6.239,10.832,4.487
		c3.185-1.319,5.109-4.394,5.118-7.639H20.205z"/>
	<path fill="#FFDA69" d="M34.784,17.921c-0.011,2.459-1.472,4.792-3.882,5.791c-0.771,0.319-1.58,0.481-2.404,0.481
		c-2.555,0-4.837-1.525-5.815-3.885c-0.319-0.77-0.479-1.578-0.481-2.386H34.784z"/>
	<path fill="#CB0000" d="M44.578,18.92H12.412c-0.553,0-1-0.447-1-1s0.447-1,1-1h32.166c0.553,0,1,0.447,1,1
		S45.13,18.92,44.578,18.92z"/>
	<path fill="#45ABFF" d="M33.561,55.08c-0.117,0-0.235-0.021-0.352-0.063c-0.517-0.194-0.778-0.771-0.585-1.288l0.751-2
		c0.195-0.519,0.771-0.776,1.288-0.585c0.517,0.194,0.778,0.771,0.585,1.288l-0.751,2C34.346,54.833,33.965,55.08,33.561,55.08z"/>
	<path fill="#45ABFF" d="M35.812,49.08c-0.116,0-0.235-0.021-0.351-0.063c-0.518-0.193-0.779-0.771-0.586-1.287l0.749-2
		c0.193-0.517,0.771-0.777,1.287-0.586c0.518,0.193,0.779,0.771,0.586,1.287l-0.749,2C36.598,48.832,36.217,49.08,35.812,49.08z"/>
	<path fill="#45ABFF" d="M39.365,53.08c-0.117,0-0.235-0.021-0.352-0.063c-0.517-0.194-0.778-0.771-0.585-1.288l0.75-2
		c0.193-0.518,0.771-0.776,1.288-0.585c0.517,0.194,0.778,0.771,0.585,1.288l-0.75,2C40.151,52.833,39.769,53.08,39.365,53.08z"/>
	<polygon fill="#FFAA45" points="45.174,42.795 43.174,48.795 48.174,48.795 46.174,54.795 54.174,45.795 50.174,45.795 
		52.174,42.795 	"/>
	<path fill="#868686" d="M47.981,22.4c-3.586,0-6.83,1.837-8.681,4.801c-0.375-0.057-0.756-0.086-1.141-0.086
		c-2.791,0-5.307,1.555-6.594,3.936c-3.126,0.161-5.62,2.755-5.62,5.921c0,2.936,2.18,5.25,5.554,5.893
		c2.206,0.421,5.395,0.577,11.768,0.577c6.022,0,9.86-0.302,12.019-0.555c3.172-0.372,5.303-2.591,5.303-5.522
		c0-1.841-0.904-3.508-2.359-4.52c0.001-0.065,0.002-0.13,0.002-0.194C58.231,26.999,53.633,22.4,47.981,22.4L47.981,22.4z"/>
	<path fill="#E6E6E6" d="M56.11,34.008c0.073-0.443,0.121-0.894,0.121-1.357c0-4.557-3.693-8.25-8.25-8.25
		c-3.464,0-6.424,2.137-7.647,5.162c-0.667-0.287-1.402-0.448-2.174-0.448c-2.541,0-4.674,1.726-5.305,4.067
		c-0.315-0.082-0.64-0.138-0.981-0.138c-2.17,0-3.929,1.759-3.929,3.929c0,2.17,1.744,3.512,3.929,3.929
		c2.185,0.417,5.518,0.542,11.393,0.542s9.655-0.292,11.786-0.542c2.131-0.25,3.536-1.583,3.536-3.536
		C58.588,35.783,57.543,34.46,56.11,34.008z"/>
	<g>
		<path fill="#FFFFFF" d="M31.874,35.078c0.341,0,0.666,0.057,0.981,0.138c0.631-2.342,2.764-4.067,5.305-4.067
			c0.773,0,1.507,0.161,2.174,0.448c1.223-3.026,4.183-5.162,7.647-5.162c4.203,0,7.664,3.144,8.177,7.207
			c0.042-0.326,0.073-0.654,0.073-0.992c0-4.557-3.693-8.25-8.25-8.25c-3.464,0-6.424,2.137-7.647,5.162
			c-0.667-0.287-1.402-0.448-2.174-0.448c-2.541,0-4.674,1.726-5.305,4.067c-0.315-0.082-0.64-0.138-0.981-0.138
			c-2.17,0-3.929,1.759-3.929,3.929c0,0.36,0.064,0.689,0.154,1.004C28.554,36.309,30.063,35.078,31.874,35.078z"/>
	</g>
</g>
</svg>
