<?xml version="1.0" encoding="utf-8"?>
<!-- Generator: Adobe Illustrator 19.0.1, SVG Export Plug-In . SVG Version: 6.00 Build 0)  -->
<!DOCTYPE svg PUBLIC "-//W3C//DTD SVG 1.1//EN" "http://www.w3.org/Graphics/SVG/1.1/DTD/svg11.dtd">
<svg version="1.1" id="Layer_1" xmlns="http://www.w3.org/2000/svg" xmlns:xlink="http://www.w3.org/1999/xlink" x="0px" y="0px"
	 width="72px" height="72px" viewBox="0 0 72 72" enable-background="new 0 0 72 72" xml:space="preserve">
<g>
	<path fill="#FFAA45" d="M33.798,29.41c-0.393,0-0.765-0.232-0.924-0.617l-1.216-2.938c-0.211-0.511,0.031-1.096,0.541-1.307
		c0.509-0.211,1.096,0.03,1.307,0.541l1.216,2.938c0.211,0.511-0.031,1.096-0.541,1.307C34.056,29.385,33.926,29.41,33.798,29.41z"
		/>
	<path fill="#FFAA45" d="M15.69,21.908c-0.393,0-0.765-0.232-0.924-0.617c-0.211-0.511,0.031-1.096,0.541-1.307l2.937-1.216
		c0.51-0.21,1.096,0.031,1.307,0.541c0.211,0.511-0.031,1.096-0.541,1.307l-2.937,1.216C15.948,21.883,15.818,21.908,15.69,21.908z"
		/>
	<path fill="#FFAA45" d="M23.191,29.41c-0.128,0-0.258-0.024-0.383-0.076c-0.51-0.211-0.752-0.796-0.541-1.307l1.216-2.938
		c0.212-0.511,0.798-0.752,1.307-0.541c0.51,0.211,0.752,0.796,0.541,1.307l-1.216,2.938C23.956,29.177,23.584,29.41,23.191,29.41z"
		/>
	<path fill="#FFAA45" d="M41.299,21.908c-0.128,0-0.258-0.024-0.383-0.076l-2.937-1.216c-0.51-0.211-0.752-0.796-0.541-1.307
		s0.798-0.752,1.307-0.541l2.937,1.216c0.51,0.211,0.752,0.796,0.541,1.307C42.064,21.675,41.691,21.908,41.299,21.908z"/>
	<path fill="#FFAA45" d="M20.205,15.625c0.002,1.052,0.202,2.12,0.63,3.152c1.752,4.23,6.602,6.239,10.832,4.487
		c3.185-1.319,5.109-4.394,5.118-7.639H20.205z"/>
	<path fill="#FFDA69" d="M34.784,15.625c-0.011,2.459-1.472,4.792-3.882,5.791c-0.771,0.319-1.58,0.481-2.404,0.481
		c-2.555,0-4.837-1.525-5.815-3.885c-0.319-0.77-0.479-1.578-0.481-2.386H34.784z"/>
	<path fill="#CB0000" d="M44.578,16.625H12.412c-0.553,0-1-0.447-1-1s0.447-1,1-1h32.166c0.553,0,1,0.447,1,1
		S45.13,16.625,44.578,16.625z"/>
	<path fill="#45ABFF" d="M31.838,53.125c-0.117,0-0.235-0.021-0.352-0.063c-0.517-0.194-0.778-0.771-0.585-1.288l3-8
		c0.193-0.518,0.771-0.776,1.288-0.585c0.517,0.194,0.778,0.771,0.585,1.288l-3,8C32.624,52.877,32.242,53.125,31.838,53.125z"/>
	<path fill="#45ABFF" d="M36.244,57.375c-0.117,0-0.235-0.021-0.352-0.063c-0.517-0.194-0.778-0.771-0.585-1.288l4.594-12.251
		c0.194-0.518,0.771-0.776,1.288-0.585c0.517,0.194,0.778,0.771,0.585,1.288l-4.594,12.251
		C37.03,57.128,36.649,57.375,36.244,57.375z"/>
	<path fill="#45ABFF" d="M42.76,56c-0.117,0-0.235-0.021-0.352-0.063c-0.517-0.194-0.778-0.771-0.585-1.288l4.078-10.876
		c0.193-0.518,0.77-0.776,1.288-0.585c0.517,0.194,0.778,0.771,0.585,1.288l-4.078,10.876C43.546,55.753,43.164,56,42.76,56z"/>
	<path fill="#45ABFF" d="M49.838,53.125c-0.117,0-0.235-0.021-0.352-0.063c-0.517-0.194-0.778-0.771-0.585-1.288l3-8
		c0.194-0.518,0.771-0.776,1.288-0.585c0.517,0.194,0.778,0.771,0.585,1.288l-3,8C50.624,52.877,50.242,53.125,49.838,53.125z"/>
	<path fill="#868686" d="M47.981,20.105c-3.586,0-6.83,1.837-8.681,4.801c-0.375-0.057-0.756-0.086-1.141-0.086
		c-2.791,0-5.307,1.555-6.594,3.936c-3.126,0.161-5.62,2.755-5.62,5.921c0,2.936,2.18,5.25,5.554,5.893
		c2.206,0.421,5.395,0.577,11.768,0.577c6.022,0,9.86-0.302,12.019-0.555c3.172-0.372,5.303-2.591,5.303-5.522
		c0-1.841-0.904-3.508-2.359-4.52c0.001-0.065,0.002-0.13,0.002-0.194C58.231,24.703,53.633,20.105,47.981,20.105L47.981,20.105z"/>
	<path fill="#BFBFBF" d="M56.11,31.712c0.073-0.443,0.121-0.894,0.121-1.357c0-4.557-3.693-8.25-8.25-8.25
		c-3.464,0-6.424,2.137-7.647,5.162c-0.667-0.287-1.402-0.448-2.174-0.448c-2.541,0-4.674,1.726-5.305,4.067
		c-0.315-0.082-0.64-0.138-0.981-0.138c-2.17,0-3.929,1.759-3.929,3.929c0,2.17,1.744,3.512,3.929,3.929
		c2.185,0.417,5.518,0.542,11.393,0.542s9.655-0.292,11.786-0.542c2.131-0.25,3.536-1.583,3.536-3.536
		C58.588,33.487,57.543,32.164,56.11,31.712z"/>
	<g>
		<path fill="#E0E0E0" d="M31.874,32.782c0.341,0,0.666,0.057,0.981,0.138c0.631-2.342,2.764-4.067,5.305-4.067
			c0.773,0,1.507,0.161,2.174,0.448c1.223-3.026,4.183-5.162,7.647-5.162c4.203,0,7.664,3.144,8.177,7.207
			c0.042-0.326,0.073-0.654,0.073-0.992c0-4.557-3.693-8.25-8.25-8.25c-3.464,0-6.424,2.137-7.647,5.162
			c-0.667-0.287-1.402-0.448-2.174-0.448c-2.541,0-4.674,1.726-5.305,4.067c-0.315-0.082-0.64-0.138-0.981-0.138
			c-2.17,0-3.929,1.759-3.929,3.929c0,0.36,0.064,0.689,0.154,1.004C28.554,34.013,30.063,32.782,31.874,32.782z"/>
	</g>
</g>
</svg>
