<?xml version="1.0" encoding="utf-8"?>
<!-- Generator: Adobe Illustrator 19.0.1, SVG Export Plug-In . SVG Version: 6.00 Build 0)  -->
<!DOCTYPE svg PUBLIC "-//W3C//DTD SVG 1.1//EN" "http://www.w3.org/Graphics/SVG/1.1/DTD/svg11.dtd">
<svg version="1.1" id="Layer_1" xmlns="http://www.w3.org/2000/svg" xmlns:xlink="http://www.w3.org/1999/xlink" x="0px" y="0px"
	 width="72px" height="72px" viewBox="0 0 72 72" enable-background="new 0 0 72 72" xml:space="preserve">
<g>
	<path fill="#868686" d="M40.714,18.49c-3.586,0-6.83,1.837-8.681,4.801c-0.375-0.057-0.756-0.086-1.141-0.086
		c-2.791,0-5.307,1.556-6.594,3.937c-3.126,0.161-5.62,2.755-5.62,5.921c0,2.936,2.18,5.25,5.554,5.893
		c2.206,0.421,5.395,0.577,11.768,0.577c6.022,0,9.859-0.302,12.019-0.555c3.172-0.372,5.303-2.591,5.303-5.522
		c0-1.841-0.904-3.507-2.359-4.52c0.001-0.065,0.002-0.13,0.002-0.194C50.964,23.088,46.366,18.49,40.714,18.49L40.714,18.49z"/>
	<path fill="#45ABFF" d="M26.822,51.51c-0.117,0-0.235-0.021-0.352-0.063c-0.517-0.194-0.778-0.771-0.585-1.288l0.75-2
		c0.193-0.518,0.77-0.775,1.288-0.585c0.517,0.194,0.778,0.771,0.585,1.288l-0.75,2C27.608,51.263,27.226,51.51,26.822,51.51z"/>
	<path fill="#45ABFF" d="M29.072,45.51c-0.117,0-0.235-0.021-0.352-0.063c-0.517-0.194-0.778-0.771-0.585-1.288l0.75-2
		c0.193-0.519,0.771-0.777,1.288-0.585c0.517,0.194,0.778,0.771,0.585,1.288l-0.75,2C29.858,45.263,29.476,45.51,29.072,45.51z"/>
	<path fill="#45ABFF" d="M40.571,51.51c-0.117,0-0.235-0.021-0.352-0.063c-0.517-0.194-0.778-0.771-0.585-1.288l0.751-2
		c0.195-0.518,0.771-0.775,1.288-0.585c0.517,0.194,0.778,0.771,0.585,1.288l-0.751,2C41.356,51.263,40.975,51.51,40.571,51.51z"/>
	<path fill="#45ABFF" d="M42.822,45.51c-0.116,0-0.235-0.021-0.351-0.063c-0.518-0.193-0.779-0.771-0.586-1.287l0.749-2
		c0.193-0.517,0.77-0.778,1.287-0.586c0.518,0.193,0.779,0.771,0.586,1.287l-0.749,2C43.608,45.262,43.227,45.51,42.822,45.51z"/>
	<path fill="#45ABFF" d="M33.196,53.51c-0.117,0-0.235-0.021-0.352-0.063c-0.517-0.194-0.778-0.771-0.585-1.288l0.75-2
		c0.193-0.519,0.771-0.776,1.288-0.585c0.517,0.194,0.778,0.771,0.585,1.288l-0.75,2C33.982,53.263,33.6,53.51,33.196,53.51z"/>
	<path fill="#45ABFF" d="M35.447,47.51c-0.117,0-0.235-0.021-0.352-0.063c-0.517-0.194-0.778-0.771-0.585-1.288l0.75-2
		c0.193-0.518,0.771-0.776,1.288-0.585c0.517,0.194,0.778,0.771,0.585,1.288l-0.75,2C36.233,47.263,35.851,47.51,35.447,47.51z"/>
	<path fill="#BFBFBF" d="M48.843,30.098c0.073-0.443,0.121-0.894,0.121-1.357c0-4.557-3.693-8.25-8.25-8.25
		c-3.464,0-6.424,2.137-7.647,5.162c-0.667-0.287-1.402-0.448-2.174-0.448c-2.541,0-4.674,1.726-5.305,4.067
		c-0.315-0.082-0.64-0.138-0.981-0.138c-2.17,0-3.929,1.759-3.929,3.929c0,2.17,1.744,3.512,3.929,3.929
		c2.185,0.417,5.518,0.542,11.393,0.542s9.655-0.292,11.786-0.542c2.131-0.25,3.536-1.583,3.536-3.536
		C51.321,31.873,50.276,30.549,48.843,30.098z"/>
	<g>
		<path fill="#E0E0E0" d="M24.607,31.167c0.341,0,0.666,0.057,0.981,0.138c0.631-2.342,2.764-4.067,5.305-4.067
			c0.773,0,1.507,0.161,2.174,0.448c1.223-3.026,4.183-5.162,7.647-5.162c4.203,0,7.664,3.144,8.177,7.207
			c0.042-0.326,0.073-0.654,0.073-0.992c0-4.557-3.693-8.25-8.25-8.25c-3.464,0-6.424,2.137-7.647,5.162
			c-0.667-0.287-1.402-0.448-2.174-0.448c-2.541,0-4.674,1.726-5.305,4.067c-0.315-0.082-0.64-0.138-0.981-0.138
			c-2.17,0-3.929,1.759-3.929,3.929c0,0.36,0.064,0.689,0.154,1.004C21.288,32.399,22.796,31.167,24.607,31.167z"/>
	</g>
</g>
</svg>
