<?xml version="1.0" encoding="utf-8"?>
<!-- Generator: Adobe Illustrator 19.0.1, SVG Export Plug-In . SVG Version: 6.00 Build 0)  -->
<!DOCTYPE svg PUBLIC "-//W3C//DTD SVG 1.1//EN" "http://www.w3.org/Graphics/SVG/1.1/DTD/svg11.dtd">
<svg version="1.1" id="Layer_1" xmlns="http://www.w3.org/2000/svg" xmlns:xlink="http://www.w3.org/1999/xlink" x="0px" y="0px"
	 width="72px" height="72px" viewBox="0 0 72 72" enable-background="new 0 0 72 72" xml:space="preserve">
<g>
	<path fill="#868686" d="M44.319,32.414c-3.456,0-6.56,1.987-8.056,5c-3.834,0.03-6.944,3.159-6.944,7
		c0,3.716,3.023,6.257,5.866,6.762c2.196,0.39,4.727,0.571,7.967,0.571c3.221,0,5.312-0.021,7.63-0.44
		c4.093-0.739,4.704-3.642,4.704-5.306c0-1.728-0.83-3.317-2.171-4.319c0.003-0.089,0.004-0.179,0.004-0.268
		C53.319,36.452,49.282,32.414,44.319,32.414L44.319,32.414z"/>
	<path fill="#E6E6E6" d="M51.183,42.789c0.089-0.445,0.137-0.904,0.137-1.375c0-3.866-3.133-7-7-7c-3.234,0-5.948,2.196-6.752,5.176
		c-0.401-0.104-0.815-0.176-1.248-0.176c-2.762,0-5,2.238-5,5c0,2.762,2.341,4.46,4.216,4.792c1.875,0.333,4.242,0.54,7.617,0.54
		c3.375,0,5.195-0.032,7.274-0.408c2.079-0.376,3.059-1.453,3.059-3.338C53.486,44.507,52.52,43.251,51.183,42.789z"/>
	<g>
		<path fill="#FFFFFF" d="M36.319,41.499c0.434,0,0.847,0.073,1.248,0.176c0.803-2.98,3.517-5.176,6.752-5.176
			c3.511,0,6.408,2.586,6.914,5.955c0.051-0.34,0.086-0.685,0.086-1.04c0-3.866-3.133-7-7-7c-3.234,0-5.948,2.196-6.752,5.176
			c-0.401-0.104-0.815-0.176-1.248-0.176c-2.762,0-5,2.238-5,5c0,0.361,0.044,0.702,0.118,1.026
			C31.924,43.188,33.922,41.499,36.319,41.499z"/>
	</g>
</g>
<g>
	<path fill="#FFDA69" d="M36.268,30.095c0.209-5.167-3.602-9.558-8.647-10.172c1.854,3.189,2.183,7.198,0.517,10.801
		c-1.59,3.438-4.639,5.727-8.069,6.498c1.616,1.366,3.676,2.232,5.954,2.324C31.462,39.765,36.048,35.534,36.268,30.095z"/>
</g>
</svg>
