<?xml version="1.0" encoding="utf-8"?>
<!-- Generator: Adobe Illustrator 19.0.1, SVG Export Plug-In . SVG Version: 6.00 Build 0)  -->
<!DOCTYPE svg PUBLIC "-//W3C//DTD SVG 1.1//EN" "http://www.w3.org/Graphics/SVG/1.1/DTD/svg11.dtd">
<svg version="1.1" id="Layer_1" xmlns="http://www.w3.org/2000/svg" xmlns:xlink="http://www.w3.org/1999/xlink" x="0px" y="0px"
	 width="72px" height="72px" viewBox="0 0 72 72" enable-background="new 0 0 72 72" xml:space="preserve">
<g>
	<polygon fill="#FFAA45" points="43.035,43.725 41.035,49.725 46.035,49.725 44.035,55.725 52.035,46.725 48.035,46.725 
		50.035,43.725 	"/>
	<path fill="#45ABFF" d="M28.107,56.726c-0.117,0-0.235-0.021-0.351-0.063c-0.517-0.194-0.779-0.771-0.585-1.288l3-8
		c0.194-0.517,0.771-0.776,1.288-0.585c0.517,0.194,0.779,0.771,0.585,1.288l-3,8C28.893,56.479,28.512,56.726,28.107,56.726z"/>
	<path fill="#45ABFF" d="M32.513,60.976c-0.117,0-0.235-0.021-0.351-0.063c-0.517-0.194-0.779-0.771-0.585-1.288l4.594-12.25
		c0.195-0.517,0.771-0.776,1.288-0.585c0.517,0.194,0.779,0.771,0.585,1.288l-4.594,12.25
		C33.298,60.729,32.917,60.976,32.513,60.976z"/>
	<path fill="#45ABFF" d="M39.028,59.601c-0.117,0-0.235-0.021-0.351-0.063c-0.517-0.194-0.779-0.771-0.585-1.288l1.829-4.875
		c0.194-0.517,0.77-0.776,1.288-0.585c0.517,0.194,0.779,0.771,0.585,1.288l-1.829,4.875C39.814,59.354,39.433,59.601,39.028,59.601
		z"/>
	<path fill="#868686" d="M43.842,23.33c-3.586,0-6.83,1.837-8.681,4.801c-0.375-0.057-0.756-0.086-1.141-0.086
		c-2.791,0-5.307,1.556-6.594,3.937c-3.126,0.161-5.62,2.755-5.62,5.921c0,2.936,2.18,5.25,5.554,5.893
		c2.206,0.421,5.395,0.577,11.768,0.577c6.021,0,9.859-0.302,12.019-0.555c3.172-0.372,5.303-2.591,5.303-5.522
		c0-1.841-0.904-3.508-2.359-4.52c0.001-0.065,0.002-0.13,0.002-0.194C54.092,27.928,49.494,23.33,43.842,23.33L43.842,23.33z"/>
	<path fill="#BFBFBF" d="M51.971,34.938c0.073-0.443,0.121-0.894,0.121-1.357c0-4.557-3.693-8.25-8.25-8.25
		c-3.464,0-6.424,2.137-7.647,5.162c-0.667-0.287-1.402-0.448-2.174-0.448c-2.541,0-4.674,1.726-5.305,4.067
		c-0.315-0.082-0.64-0.138-0.981-0.138c-2.17,0-3.929,1.759-3.929,3.929c0,2.17,1.744,3.512,3.929,3.929
		c2.185,0.417,5.518,0.542,11.393,0.542s9.655-0.292,11.786-0.542c2.131-0.25,3.536-1.583,3.536-3.536
		C54.45,36.713,53.404,35.39,51.971,34.938z"/>
	<g>
		<path fill="#E0E0E0" d="M27.735,36.007c0.341,0,0.666,0.057,0.981,0.138c0.631-2.342,2.764-4.067,5.305-4.067
			c0.773,0,1.507,0.161,2.174,0.448c1.223-3.026,4.183-5.162,7.647-5.162c4.203,0,7.664,3.144,8.177,7.207
			c0.042-0.326,0.073-0.654,0.073-0.992c0-4.557-3.693-8.25-8.25-8.25c-3.464,0-6.424,2.137-7.647,5.162
			c-0.667-0.287-1.402-0.448-2.174-0.448c-2.541,0-4.674,1.726-5.305,4.067c-0.315-0.082-0.64-0.138-0.981-0.138
			c-2.17,0-3.929,1.759-3.929,3.929c0,0.36,0.064,0.689,0.154,1.004C24.416,37.239,25.924,36.007,27.735,36.007z"/>
	</g>
</g>
<g>
	<path fill="#FFDA69" d="M31.775,22.58c0.209-5.167-3.602-9.558-8.647-10.172c1.854,3.189,2.183,7.198,0.517,10.801
		c-1.59,3.438-4.639,5.727-8.069,6.498c1.616,1.366,3.676,2.232,5.954,2.324C26.969,32.249,31.556,28.019,31.775,22.58z"/>
</g>
</svg>
