<?xml version="1.0" encoding="utf-8"?>
<!-- Generator: Adobe Illustrator 19.0.1, SVG Export Plug-In . SVG Version: 6.00 Build 0)  -->
<!DOCTYPE svg PUBLIC "-//W3C//DTD SVG 1.1//EN" "http://www.w3.org/Graphics/SVG/1.1/DTD/svg11.dtd">
<svg version="1.1" id="Layer_1" xmlns="http://www.w3.org/2000/svg" xmlns:xlink="http://www.w3.org/1999/xlink" x="0px" y="0px"
	 width="72px" height="72px" viewBox="0 0 72 72" enable-background="new 0 0 72 72" xml:space="preserve">
<g>
	<polygon fill="#FFAA45" points="41.193,45.1 39.193,51.1 44.193,51.1 42.193,57.1 50.193,48.1 46.193,48.1 48.193,45.1 	"/>
	<path fill="#45ABFF" d="M35.188,50.1c-0.955,0-1.733,0.769-1.75,1.72c-0.259-0.144-0.552-0.22-0.848-0.22
		c-0.624,0-1.205,0.335-1.516,0.875c-0.477,0.827-0.201,1.885,0.614,2.375c-0.815,0.489-1.091,1.548-0.614,2.375
		c0.311,0.54,0.892,0.875,1.516,0.875c0.296,0,0.589-0.076,0.848-0.219c0.016,0.951,0.795,1.719,1.75,1.719s1.733-0.769,1.75-1.719
		c0.259,0.144,0.551,0.219,0.848,0.219c0.624,0,1.205-0.336,1.516-0.876c0.477-0.826,0.2-1.885-0.615-2.374
		c0.815-0.489,1.091-1.548,0.614-2.375c-0.311-0.54-0.892-0.875-1.516-0.875c-0.296,0-0.588,0.076-0.848,0.22
		C36.922,50.869,36.143,50.1,35.188,50.1L35.188,50.1z"/>
	<path fill="#45ABFF" d="M52.092,50.1c-0.955,0-1.733,0.769-1.75,1.72c-0.259-0.144-0.552-0.22-0.848-0.22
		c-0.624,0-1.205,0.335-1.516,0.875c-0.477,0.827-0.201,1.885,0.614,2.375c-0.815,0.489-1.091,1.548-0.614,2.375
		c0.311,0.54,0.892,0.875,1.516,0.875c0.296,0,0.589-0.076,0.848-0.219c0.016,0.951,0.795,1.719,1.75,1.719s1.733-0.769,1.75-1.719
		c0.259,0.144,0.551,0.219,0.848,0.219c0.624,0,1.205-0.336,1.516-0.876c0.477-0.826,0.2-1.885-0.615-2.374
		c0.815-0.489,1.091-1.548,0.614-2.375c-0.311-0.54-0.892-0.875-1.516-0.875c-0.296,0-0.588,0.076-0.848,0.22
		C53.826,50.869,53.047,50.1,52.092,50.1L52.092,50.1z"/>
	<path fill="#45ABFF" d="M25.387,46.35c-0.955,0-1.733,0.769-1.75,1.72c-0.259-0.144-0.552-0.22-0.848-0.22
		c-0.624,0-1.205,0.335-1.516,0.875c-0.477,0.827-0.201,1.885,0.614,2.375c-0.815,0.489-1.091,1.548-0.614,2.375
		c0.311,0.54,0.892,0.875,1.516,0.875c0.296,0,0.589-0.076,0.848-0.219c0.016,0.951,0.795,1.719,1.75,1.719s1.733-0.769,1.75-1.719
		c0.259,0.144,0.551,0.219,0.848,0.219c0.624,0,1.205-0.336,1.516-0.876c0.477-0.826,0.2-1.885-0.615-2.374
		c0.815-0.489,1.091-1.548,0.614-2.375c-0.311-0.54-0.892-0.875-1.516-0.875c-0.296,0-0.588,0.076-0.848,0.22
		C27.12,47.119,26.341,46.35,25.387,46.35L25.387,46.35z"/>
	<path fill="#868686" d="M43.842,24.706c-3.586,0-6.83,1.837-8.681,4.801c-0.375-0.057-0.756-0.086-1.141-0.086
		c-2.791,0-5.307,1.555-6.594,3.937c-3.126,0.161-5.62,2.755-5.62,5.921c0,2.936,2.18,5.25,5.554,5.893
		c2.206,0.421,5.395,0.577,11.768,0.577c6.022,0,9.859-0.302,12.019-0.555c3.172-0.372,5.303-2.591,5.303-5.522
		c0-1.841-0.904-3.508-2.359-4.52c0.001-0.065,0.002-0.13,0.002-0.194C54.092,29.304,49.494,24.706,43.842,24.706L43.842,24.706z"/>
	<path fill="#BFBFBF" d="M51.971,36.313c0.073-0.443,0.121-0.894,0.121-1.357c0-4.557-3.693-8.25-8.25-8.25
		c-3.464,0-6.424,2.137-7.647,5.162c-0.667-0.287-1.402-0.448-2.174-0.448c-2.541,0-4.674,1.726-5.305,4.067
		c-0.315-0.082-0.64-0.138-0.981-0.138c-2.17,0-3.929,1.759-3.929,3.929c0,2.17,1.744,3.512,3.929,3.929s5.518,0.542,11.393,0.542
		s9.655-0.292,11.786-0.542s3.536-1.583,3.536-3.536C54.45,38.088,53.404,36.765,51.971,36.313z"/>
	<g>
		<path fill="#E0E0E0" d="M27.735,37.383c0.341,0,0.666,0.057,0.981,0.138c0.631-2.342,2.764-4.067,5.305-4.067
			c0.773,0,1.507,0.161,2.174,0.448c1.223-3.026,4.183-5.162,7.647-5.162c4.203,0,7.664,3.144,8.177,7.207
			c0.042-0.326,0.073-0.654,0.073-0.992c0-4.557-3.693-8.25-8.25-8.25c-3.464,0-6.424,2.137-7.647,5.162
			c-0.667-0.287-1.402-0.448-2.174-0.448c-2.541,0-4.674,1.726-5.305,4.067c-0.315-0.082-0.64-0.138-0.981-0.138
			c-2.17,0-3.929,1.759-3.929,3.929c0,0.36,0.064,0.689,0.154,1.004C24.416,38.614,25.925,37.383,27.735,37.383z"/>
	</g>
	<path fill="#FFFFFF" d="M38.161,55.701l-1.473-0.851L38.161,54c0.359-0.207,0.481-0.666,0.274-1.024s-0.666-0.481-1.024-0.274
		l-1.473,0.851V51.85c0-0.414-0.336-0.75-0.75-0.75s-0.75,0.336-0.75,0.75v1.701l-1.473-0.851c-0.358-0.207-0.817-0.084-1.024,0.274
		S31.856,53.793,32.215,54l1.473,0.851l-1.473,0.851c-0.359,0.207-0.481,0.666-0.274,1.024c0.139,0.241,0.391,0.375,0.65,0.375
		c0.127,0,0.256-0.032,0.375-0.101l1.473-0.851v1.701c0,0.414,0.336,0.75,0.75,0.75s0.75-0.336,0.75-0.75v-1.701L37.411,57
		c0.118,0.068,0.247,0.101,0.375,0.101c0.259,0,0.511-0.134,0.65-0.375C38.643,56.366,38.52,55.908,38.161,55.701z"/>
	<path fill="#FFFFFF" d="M55.065,55.701l-1.473-0.851L55.065,54c0.359-0.207,0.481-0.666,0.274-1.024s-0.666-0.481-1.024-0.274
		l-1.473,0.851V51.85c0-0.414-0.336-0.75-0.75-0.75s-0.75,0.336-0.75,0.75v1.701l-1.473-0.851c-0.358-0.207-0.817-0.084-1.024,0.274
		S48.76,53.793,49.119,54l1.473,0.851l-1.473,0.851c-0.359,0.207-0.481,0.666-0.274,1.024c0.139,0.241,0.391,0.375,0.65,0.375
		c0.127,0,0.256-0.032,0.375-0.101l1.473-0.851v1.701c0,0.414,0.336,0.75,0.75,0.75s0.75-0.336,0.75-0.75v-1.701L54.315,57
		c0.118,0.068,0.247,0.101,0.375,0.101c0.259,0,0.511-0.134,0.65-0.375C55.547,56.366,55.424,55.908,55.065,55.701z"/>
	<path fill="#FFFFFF" d="M28.36,51.951L26.886,51.1l1.473-0.851c0.359-0.207,0.481-0.666,0.274-1.024s-0.666-0.481-1.024-0.274
		l-1.473,0.851V48.1c0-0.414-0.336-0.75-0.75-0.75s-0.75,0.336-0.75,0.75v1.701l-1.473-0.851c-0.358-0.207-0.817-0.084-1.024,0.274
		s-0.084,0.817,0.274,1.024l1.473,0.851l-1.473,0.851c-0.359,0.207-0.481,0.666-0.274,1.024c0.139,0.241,0.391,0.375,0.65,0.375
		c0.127,0,0.256-0.032,0.375-0.101l1.473-0.851V54.1c0,0.414,0.336,0.75,0.75,0.75s0.75-0.336,0.75-0.75v-1.701l1.473,0.851
		c0.118,0.068,0.247,0.101,0.375,0.101c0.259,0,0.511-0.134,0.65-0.375C28.841,52.617,28.719,52.158,28.36,51.951z"/>
</g>
<g>
	<path fill="#FFDA69" d="M31.775,23.955c0.209-5.167-3.602-9.558-8.647-10.172c1.854,3.189,2.183,7.198,0.517,10.801
		c-1.59,3.438-4.639,5.727-8.069,6.498c1.616,1.366,3.676,2.232,5.954,2.324C26.969,33.625,31.556,29.394,31.775,23.955z"/>
</g>
</svg>
