<?xml version="1.0" encoding="utf-8"?>
<!-- Generator: Adobe Illustrator 19.0.1, SVG Export Plug-In . SVG Version: 6.00 Build 0)  -->
<!DOCTYPE svg PUBLIC "-//W3C//DTD SVG 1.1//EN" "http://www.w3.org/Graphics/SVG/1.1/DTD/svg11.dtd">
<svg version="1.1" id="Layer_1" xmlns="http://www.w3.org/2000/svg" xmlns:xlink="http://www.w3.org/1999/xlink" x="0px" y="0px"
	 width="72px" height="72px" viewBox="0 0 72 72" enable-background="new 0 0 72 72" xml:space="preserve">
<g>
	<polygon fill="#FFAA45" points="43.035,44.897 41.035,50.897 46.035,50.897 44.035,56.897 52.035,47.897 48.035,47.897 
		50.035,44.897 	"/>
	<path fill="#868686" d="M43.842,24.502c-3.586,0-6.83,1.837-8.681,4.801c-0.375-0.057-0.756-0.086-1.141-0.086
		c-2.791,0-5.307,1.555-6.594,3.936c-3.126,0.161-5.62,2.755-5.62,5.921c0,2.936,2.18,5.25,5.554,5.893
		c2.206,0.421,5.395,0.577,11.768,0.577c6.022,0,9.86-0.302,12.019-0.555c3.172-0.372,5.303-2.591,5.303-5.522
		c0-1.841-0.904-3.507-2.359-4.52c0.001-0.065,0.002-0.13,0.002-0.194C54.092,29.1,49.494,24.502,43.842,24.502L43.842,24.502z"/>
	<path fill="#45ABFF" d="M28.107,57.803c-0.117,0-0.235-0.021-0.352-0.063c-0.517-0.194-0.778-0.771-0.585-1.288l0.75-2
		c0.193-0.518,0.771-0.775,1.288-0.585c0.517,0.194,0.778,0.771,0.585,1.288l-0.75,2C28.893,57.556,28.511,57.803,28.107,57.803z"/>
	<path fill="#45ABFF" d="M30.357,51.803c-0.117,0-0.235-0.021-0.352-0.063c-0.517-0.194-0.778-0.771-0.585-1.288l0.75-2
		c0.193-0.518,0.771-0.777,1.288-0.585c0.517,0.194,0.778,0.771,0.585,1.288l-0.75,2C31.143,51.556,30.761,51.803,30.357,51.803z"/>
	<path fill="#45ABFF" d="M40.107,57.803c-0.117,0-0.235-0.021-0.352-0.063c-0.517-0.194-0.778-0.771-0.585-1.288l0.75-1.999
		c0.193-0.518,0.77-0.776,1.288-0.585c0.517,0.194,0.778,0.771,0.585,1.288l-0.75,1.999C40.893,57.556,40.511,57.803,40.107,57.803z
		"/>
	<path fill="#45ABFF" d="M33.357,59.804c-0.117,0-0.235-0.021-0.352-0.063c-0.517-0.194-0.778-0.771-0.585-1.288l0.75-2
		c0.194-0.518,0.771-0.777,1.288-0.585c0.517,0.194,0.778,0.771,0.585,1.288l-0.75,2C34.143,59.557,33.761,59.804,33.357,59.804z"/>
	<path fill="#45ABFF" d="M35.607,53.803c-0.117,0-0.235-0.021-0.352-0.063c-0.517-0.194-0.778-0.771-0.585-1.288l0.75-2
		c0.193-0.518,0.77-0.776,1.288-0.585c0.517,0.194,0.778,0.771,0.585,1.288l-0.75,2C36.393,53.556,36.011,53.803,35.607,53.803z"/>
	<path fill="#E6E6E6" d="M51.971,36.109c0.073-0.443,0.121-0.894,0.121-1.357c0-4.557-3.693-8.25-8.25-8.25
		c-3.464,0-6.424,2.137-7.647,5.162c-0.667-0.287-1.402-0.448-2.174-0.448c-2.541,0-4.674,1.726-5.305,4.067
		c-0.315-0.082-0.64-0.139-0.981-0.139c-2.17,0-3.929,1.759-3.929,3.929c0,2.17,1.744,3.512,3.929,3.929
		c2.185,0.417,5.518,0.542,11.393,0.542s9.655-0.292,11.786-0.542c2.131-0.25,3.536-1.583,3.536-3.536
		C54.449,37.884,53.404,36.561,51.971,36.109z"/>
	<g>
		<path fill="#FFFFFF" d="M27.735,37.179c0.341,0,0.666,0.057,0.981,0.138c0.631-2.342,2.764-4.067,5.305-4.067
			c0.773,0,1.507,0.161,2.174,0.448c1.223-3.026,4.183-5.162,7.647-5.162c4.203,0,7.664,3.144,8.177,7.207
			c0.042-0.326,0.073-0.654,0.073-0.992c0-4.557-3.693-8.25-8.25-8.25c-3.464,0-6.424,2.137-7.647,5.162
			c-0.667-0.287-1.402-0.448-2.174-0.448c-2.541,0-4.674,1.726-5.305,4.067c-0.315-0.082-0.64-0.138-0.981-0.138
			c-2.17,0-3.929,1.759-3.929,3.929c0,0.36,0.064,0.689,0.154,1.004C24.415,38.411,25.924,37.179,27.735,37.179z"/>
	</g>
</g>
<g>
	<path fill="#FFDA69" d="M31.775,23.751c0.209-5.167-3.602-9.558-8.647-10.172c1.854,3.189,2.183,7.198,0.517,10.801
		c-1.59,3.438-4.639,5.727-8.069,6.498c1.616,1.366,3.676,2.232,5.954,2.324C26.969,33.42,31.556,29.19,31.775,23.751z"/>
</g>
</svg>
